<svg id="Group_6" data-name="Group 6" xmlns="http://www.w3.org/2000/svg" xmlns:xlink="http://www.w3.org/1999/xlink" width="199.241" height="186.452" viewBox="0 0 199.241 186.452">
  <defs>
    <clipPath id="clip-path">
      <path id="Clip_2" data-name="Clip 2" d="M0,0H199.241V174.57H0Z" fill="none"/>
    </clipPath>
  </defs>
  <g id="Group_3" data-name="Group 3" transform="translate(0)">
    <path id="Clip_2-2" data-name="Clip 2" d="M0,0H199.241V174.57H0Z" fill="none"/>
    <g id="Group_3-2" data-name="Group 3" clip-path="url(#clip-path)">
      <path id="Fill_1" data-name="Fill 1" d="M99.562,174.57a3.6,3.6,0,0,1-3.568-2.992c-.477-2.349-1.976-5.149-6.411-5.149h-.032c-13.8.024-25.974.035-37.229.035-8.274,0-16.3-.006-23.867-.019A28.059,28.059,0,0,1,.474,143.6c-.027-.132-.052-.372-.076-.6l-.005-.049c-.02-.2-.041-.407-.067-.608l-.1-.833A5.879,5.879,0,0,0,0,139.929V2.839C.935,1.152,1.642.461,2.7.2A5.168,5.168,0,0,1,3.9.013a1.462,1.462,0,0,1,.386.045A65.879,65.879,0,0,0,22.33,2.213c3.541,0,6.919-.158,10.968-.364,3.678-.188,7.4-.407,11.007-.619l.243-.014.038,0C54.5.629,64.75.025,74.795.025h.045A27.516,27.516,0,0,1,95.381,8.572a5.47,5.47,0,0,0,8.476.007A27.524,27.524,0,0,1,124.4.024c10.084,0,20.368.607,30.314,1.193h.007c3.661.216,7.446.439,11.222.631,3.393.173,7.011.343,10.668.343A70.116,70.116,0,0,0,194.9.1a3.026,3.026,0,0,1,.777-.1,3.8,3.8,0,0,1,3.547,3.494c.018.217.017.511.016.823V4.4l0,.361v9.771c0,45.758,0,84.176,0,122.945,0,1.087-.272,4.635-3.773,4.657a3.777,3.777,0,0,1-3.775-3.564c-.022-.4-.018-.851-.014-1.331v-.014c0-.215,0-.43,0-.645V16.2a8.816,8.816,0,0,0-.513-3.727A5.18,5.18,0,0,0,186.1,9.4c-.427,0-.864.027-1.37.058l-.044,0-.229.015c-2.631.163-5.336.242-8.268.242-5.925,0-11.886-.338-16.935-.669-11.032-.72-22.769-1.428-34.326-1.481h-.12a21.55,21.55,0,0,0-15.357,5.968,21.3,21.3,0,0,0-6.042,15.313c-.006,27.684-.006,55.815-.006,83.02v25.485q0,16.26,0,32.521c0,3.031-1.2,3.926-2.372,4.4A3.888,3.888,0,0,1,99.562,174.57ZM73.8,158.922c4.825,0,10.532,0,16.279.011a5.8,5.8,0,0,0,4.286-1.611,5.643,5.643,0,0,0,1.5-4.266c-.054-2.091-.045-4.251-.036-6.338v-.143c0-.96.009-1.953.008-2.929-.008-6.38-3.28-9.615-9.725-9.616-4.334,0-8.74-.006-13-.012h-.034l-1.862,0H71.19c-5.064-.007-10.3-.014-15.448-.014-8.813,0-16,.022-22.606.068l-.949,0c-6.95,0-12.681-.654-18.057-3.845l-6.562-3.9v7.62c0,.546,0,1.1,0,1.689-.006,1.174-.008,2.078.01,3.037a20.659,20.659,0,0,0,5.969,14.2,20.009,20.009,0,0,0,14.222,5.992c10.276.047,20.477.053,29.971.053H73.8Zm12.817-32.443a16.446,16.446,0,0,1,3.792.313l4.73,1.11.573-4.817c.013-.108.025-.2.036-.273l.005-.038a6.932,6.932,0,0,0,.086-1.037q0-12.172.006-24.343v-.779c.007-22.522.015-45.811-.034-68.712a20.086,20.086,0,0,0-6.055-14.416,20.771,20.771,0,0,0-14.516-5.9c-.408,0-.855,0-1.367,0-10.44,0-20.96.661-31.134,1.3l-.031,0-2.436.153c-6.3.394-11.543.695-16.941.695-3.16,0-6.039-.107-8.8-.328-.424-.034-.77-.049-1.086-.049a5.773,5.773,0,0,0-4.254,1.6,6.477,6.477,0,0,0-1.667,4.809c.05,22.921.048,46.179.046,68.672V91.2q0,6.76,0,13.521c0,13.016,8.778,21.763,21.838,21.766q11.331,0,22.66,0H85.035l.54,0h.27Z" transform="translate(0)" fill="#fff"/>
    </g>
  </g>
  <path id="Fill_4" data-name="Fill 4" d="M19.413,116.076c-8.738,0-16.689-6.6-18.905-15.693a19.872,19.872,0,0,1-.5-4.761C.023,88.084.022,80.474.02,73.115l0-7.844q0-4.037,0-8.072c0-7.045.009-15.027-.022-22.9a6.94,6.94,0,0,1,.95-3.6C5.9,21.881,11.009,12.681,16.586,2.578,17.836.312,19.048,0,20.172,0h.1c1.083.021,2.344.25,3.62,2.724,4.26,8.262,8.64,16.635,12.875,24.731l.238.455,1.475,2.82a7,7,0,0,1,.822,3.375c-.014,10.267-.014,20.717-.014,30.824v1.71c0,9.783,0,19.36-.01,28.964-.012,10.712-7.308,19.077-17.744,20.343A17.766,17.766,0,0,1,19.413,116.076Zm-6.649-26.4c-3.154,0-5.258,2.131-5.359,5.43a13.256,13.256,0,0,0,3.555,9.661,11.891,11.891,0,0,0,8.689,3.707h.012a11.9,11.9,0,0,0,8.7-3.723A13.254,13.254,0,0,0,31.9,95.075c-.106-3.281-2.213-5.4-5.368-5.4-.077,0-.157,0-.239,0h-.008c-.781.023-1.626.033-2.661.033-.445,0-.9,0-1.332,0l-.535,0-.32,0c-.525,0-1.063-.006-1.593-.006-.561,0-1.131,0-1.682.006l-.341,0c-.651,0-1.319.007-1.975.007-1.124,0-2.026-.011-2.84-.035Zm7.071-7.549c2.149,0,4.07.025,5.872.076.122,0,.221,0,.311,0a5.807,5.807,0,0,0,4.292-1.625,6.312,6.312,0,0,0,1.6-4.6c-.045-9.1-.044-18.353-.043-27.3V44.9c0-2.679,0-5.449,0-8.172,0-.074,0-.153,0-.229a7.156,7.156,0,0,0-.666-3.533c-1.879-3.689-3.749-7.271-5.729-11.063q-.857-1.64-1.731-3.316L20.1,11.6,16.276,18.48l-1.954,3.51c-2.129,3.828-3.9,7.018-5.753,10.317a8.457,8.457,0,0,0-1.152,4.235c.018,12.651.029,26.235-.012,39.857a5.845,5.845,0,0,0,1.532,4.228A5.454,5.454,0,0,0,13,82.186h.151C14.991,82.156,17.414,82.123,19.835,82.123Z" transform="translate(127.953 70.376)" fill="#fff"/>
</svg>
