<svg id="Group_32" data-name="Group 32" xmlns="http://www.w3.org/2000/svg" xmlns:xlink="http://www.w3.org/1999/xlink" width="159" height="153" viewBox="0 0 159 153">
  <defs>
    <clipPath id="clip-path">
      <path id="Clip_2" data-name="Clip 2" d="M0,0H159V153H0Z" fill="none"/>
    </clipPath>
  </defs>
  <g id="Group_3" data-name="Group 3">
    <path id="Clip_2-2" data-name="Clip 2" d="M0,0H159V153H0Z" fill="none"/>
    <g id="Group_3-2" data-name="Group 3" clip-path="url(#clip-path)">
      <path id="Fill_1" data-name="Fill 1" d="M55.022,153h-.067c-6.008-.021-12.414-.031-20.769-.031-3.767,0-7.512,0-11.216,0h-.5l-6.09,0-6.056,0c-5.939,0-8.055-1.421-10.291-6.909L0,145.993V38.744l.054-.094c.243-.429.469-.874.718-1.369a14.849,14.849,0,0,1,1.845-3.024c1.906-2.223,4.686-2.508,6.895-2.508H9.54c1.937,0,4,0,6.322,0q4.317,0,8.634,0t8.723,0c5.782,0,13.408.006,21.114.05h.09a11.154,11.154,0,0,0,7.43-2.607C68.109,24.167,74.5,19.105,80.68,14.21l.185-.146c4.642-3.676,9.185-7.275,13.729-10.9A14.022,14.022,0,0,1,103.663,0h.023c6.205.009,12.529.01,18.437.01h14.464c4.919,0,9.211,0,13.124,0C155.527.016,159,3.518,159,9.38c0,33.98,0,68.44,0,102.42,0,5.893-3.518,9.416-9.411,9.425-4.772.007-9.806.011-15.389.011-7.816,0-15.484-.007-22.607-.014l-.215,0H111.3c-.11,0-.224,0-.34,0a2.05,2.05,0,0,1-1.435-.381c-.728-.689-1.578-1.7-1.5-2.608.076-.852.972-1.6,1.929-2.281a1.511,1.511,0,0,1,.908-.231c.181,0,.361.014.534.028l.063,0c.14.011.272.021.4.021q10.08,0,20.162,0l17.06,0c3.543,0,4.46-.914,4.46-4.44V9.843c0-3.521-.851-4.381-4.335-4.381H131.6c-10.562,0-19.3,0-27.493.006-.443,0-.891.032-1.431.073l-.155.011-.264.019V26.816c0,29.724,0,60.46.037,90.756a4.657,4.657,0,0,1-2.668,4.6,44.255,44.255,0,0,0-5.491,4.049l-.012.01c-.642.527-1.222,1-1.824,1.479l-4.221,3.338c-7.238,5.723-15.443,12.209-23.335,18.537A14.977,14.977,0,0,1,55.022,153ZM5.459,107.068h0v16.476q0,9.977,0,19.953c0,3.047.99,4.026,4.07,4.027q9.245,0,18.49,0c8.623,0,17.476,0,27.065-.006.441,0,.9-.042,1.3-.078l.127-.011.14-.012V107.157l-.006,0c-.325.142-.607.265-.884.4A54.872,54.872,0,0,1,31,113.357c-1.166,0-2.357-.035-3.537-.1a29.222,29.222,0,0,1-4.187-.523,2.448,2.448,0,0,1-2.012-3,2.475,2.475,0,0,1,2.633-2.261h.1a15.93,15.93,0,0,1,1.659.115l.294.031a52.232,52.232,0,0,0,5.311.274A49.639,49.639,0,0,0,55.576,101.5a1.966,1.966,0,0,0,1.2-2.043c-.031-15.556-.031-31.372-.031-46.669V38.541c0-.364-.023-.735-.045-1.093,0-.067-.008-.132-.012-.2h-.009l-.1-.007-.043,0c-.244-.016-.455-.03-.664-.03H9.2c-.163,0-.357,0-.553.019a3.084,3.084,0,0,0-3.179,3.411C5.454,62.764,5.455,81.3,5.5,99.858a1.817,1.817,0,0,0,.765,1.256c2.21,1.206,4.543,2.319,6.735,3.342,2.474,1.156,2.5,2.64,2.088,3.681a2.642,2.642,0,0,1-1.432,1.522,2.793,2.793,0,0,1-1.088.21,4.263,4.263,0,0,1-1.642-.363c-1.382-.582-2.713-1.187-4.122-1.827q-.664-.3-1.346-.61ZM96.8,8.412l-2.5,1.984c-2.415,1.913-4.436,3.513-6.447,5.1l-5.407,4.261-.018.014C75.978,24.847,69.317,30.1,62.791,35.3a2.187,2.187,0,0,0-.558,1.49c-.033,35.3-.03,70.772-.024,107.031a6.47,6.47,0,0,0,.052.72l2-1.581.395-.312.023-.019c1.627-1.288,3.207-2.537,4.785-3.788,2.259-1.79,4.549-3.612,6.569-5.219l.163-.13c6.109-4.86,12.424-9.883,18.713-14.722a4.283,4.283,0,0,0,1.928-3.955c-.046-29.435-.043-59.758-.04-86.511V8.412Z" transform="translate(0 0)"/>
    </g>
  </g>
  <path id="Fill_4" data-name="Fill 4" d="M25.445,22.313q-1.336,0-2.656,0h-.881l-1.134,0q-.742,0-1.484,0c-.378,0-.717,0-1.034,0q-1.745,0-3.49,0h-.739l-2.94,0c-1.792,0-3.248,0-4.581-.011C2.53,22.278.043,19.813.017,15.868c-.023-3.625-.023-6.646,0-9.507A5.971,5.971,0,0,1,6.171.056C10.126.019,14.2,0,18.269,0c3.973,0,8.02.018,12.03.053a5.983,5.983,0,0,1,6.2,6.126c.092,3.3.092,6.657,0,9.988a6.045,6.045,0,0,1-6.338,6.13C28.766,22.308,27.267,22.313,25.445,22.313ZM6.787,5.522a1.37,1.37,0,0,0-.986.271,1.534,1.534,0,0,0-.268,1.121c.067,3.253.066,5.93-.005,8.426a1.636,1.636,0,0,0,.274,1.2,1.535,1.535,0,0,0,1.086.283h.1c1.432-.028,2.986-.042,4.89-.042,1.055,0,2.093,0,3.152.008l.715,0c.752,0,1.529.006,2.284.006h.24l2.369,0H21.6c1.012,0,2.037,0,3.067,0,1.982,0,3.581.008,5.034.025h.09a1.332,1.332,0,0,0,.946-.266A1.287,1.287,0,0,0,31,15.6c-.024-3.094-.024-6.082,0-8.881a1.244,1.244,0,0,0-.257-.914,1.5,1.5,0,0,0-1.068-.285h-.01c-4.072.01-7.994.015-11.659.015-3.93,0-7.594-.005-11.2-.017Z" transform="translate(109.71 15.938)"/>
  <path id="Fill_6" data-name="Fill 6" d="M18.219,22.313c-4.06,0-7.955-.018-11.907-.056-3.863-.038-6.277-2.521-6.3-6.482C0,12.858,0,9.847.012,6.571.031,2.415,2.465.023,6.687.008,8.031,0,9.469,0,11.35,0h3.43l3.506,0L21.82,0h.448L25.59,0c1.656,0,3.021,0,4.294.008,4.132.018,6.621,2.493,6.659,6.62.027,2.916.045,6.05-.005,9.209a6.105,6.105,0,0,1-6.4,6.426C25.906,22.3,22.007,22.313,18.219,22.313ZM6.726,5.5a1.342,1.342,0,0,0-.952.248,1.4,1.4,0,0,0-.238,1c.048,2.728.081,5.656-.01,8.59A1.554,1.554,0,0,0,5.8,16.49a1.64,1.64,0,0,0,1.176.3H7.05c1.391-.018,2.93-.027,4.844-.027.946,0,1.887,0,2.818,0h.3c1.037,0,2.109.005,3.165.005s2.13,0,3.2,0h.7l2.565,0c2.009,0,3.544.005,4.977.017h.1a1.445,1.445,0,0,0,1.041-.292,1.349,1.349,0,0,0,.268-.994c-.045-3.126-.027-6.17,0-8.735a1.384,1.384,0,0,0-.26-1,1.354,1.354,0,0,0-.967-.263h-.016c-3.827.016-7.713.024-11.55.024S10.523,5.52,6.744,5.5Z" transform="translate(109.71 43.031)"/>
  <path id="Fill_8" data-name="Fill 8" d="M19.172.009C17.285,0,15.4,0,13.51,0L11.135,0,8.726,0C6.851,0,4.975,0,3.1.008S.031.9,0,2.319A2.149,2.149,0,0,0,.709,4,3.358,3.358,0,0,0,3,4.763c2.637.012,5.347.018,8.113.018,2.658,0,5.367-.006,8.108-.017a3.456,3.456,0,0,0,2.317-.777,2.124,2.124,0,0,0,.722-1.646C22.241.914,21.058.02,19.172.009" transform="translate(122.43 79.688)"/>
  <path id="Fill_10" data-name="Fill 10" d="M13.587,0l-2.349,0L8.864,0C6.959,0,4.989,0,3.05.01,1.2.023,0,.957,0,2.387S1.195,4.764,3.047,4.769c2.654.008,5.347.012,8.124.012,2.566,0,5.2,0,7.945-.01a3.581,3.581,0,0,0,2.465-.8,2.076,2.076,0,0,0,.676-1.656C22.2.9,21,.019,19.123.009,17.278,0,15.433,0,13.587,0" transform="translate(122.43 90.844)"/>
  <path id="Fill_12" data-name="Fill 12" d="M2.35,4.781h.04A2.42,2.42,0,0,0,4.77,2.43,2.421,2.421,0,0,0,2.432,0,2.439,2.439,0,0,0,.754.681,2.4,2.4,0,0,0,0,2.35,2.394,2.394,0,0,0,.689,4.034a2.4,2.4,0,0,0,1.661.747" transform="translate(112.89 90.844)"/>
  <path id="Fill_14" data-name="Fill 14" d="M2.434,4.781A2.422,2.422,0,0,0,4.77,2.342,2.418,2.418,0,0,0,2.387,0h-.04A2.4,2.4,0,0,0,.672.747,2.357,2.357,0,0,0,0,2.428,2.41,2.41,0,0,0,.746,4.1a2.393,2.393,0,0,0,1.645.684h.043" transform="translate(112.89 79.688)"/>
  <path id="Fill_16" data-name="Fill 16" d="M9.61,28.688a6.636,6.636,0,0,1-4.126-1.5,6.929,6.929,0,0,1-2.569-6.377l.031-.224.237-.113c-.106-.263-.208-.534-.3-.774l0-.013A9.643,9.643,0,0,0,1.815,17.44,7.9,7.9,0,0,1,.282,10.494,7.666,7.666,0,0,1,5.5,5.725,6.48,6.48,0,0,0,8.534,3.313,7.08,7.08,0,0,1,14.367,0h.119a6.714,6.714,0,0,1,5.558,3.329,5.463,5.463,0,0,0,3.444,2.557,6.76,6.76,0,0,1,4.79,4.473,7.145,7.145,0,0,1-1.234,6.647,5.7,5.7,0,0,0-1.355,4.28,6.763,6.763,0,0,1-2.569,5.948,6.467,6.467,0,0,1-4.048,1.448,6.136,6.136,0,0,1-2.183-.4,7.385,7.385,0,0,0-2.642-.533,6.367,6.367,0,0,0-2.466.515A5.655,5.655,0,0,1,9.61,28.688Zm4.7-6.6a9.949,9.949,0,0,1,3.763.769,3.058,3.058,0,0,0,1.109.256,1.064,1.064,0,0,0,.651-.188,2.178,2.178,0,0,0,.491-1.807,10.289,10.289,0,0,1,2.157-7.082c.654-.846.915-1.494.777-1.928s-.717-.793-1.722-1.076a9.79,9.79,0,0,1-5.726-4.27c-.565-.88-1.077-1.327-1.522-1.327s-.918.423-1.444,1.252A9.709,9.709,0,0,1,6.869,11.1c-.6.154-1.343.448-1.516.976-.143.44.1,1.082.708,1.857a10.013,10.013,0,0,1,2.254,6.57c-.014,1.421.134,2.169.479,2.425a.889.889,0,0,0,.542.141,6.116,6.116,0,0,0,1.822-.428A9.521,9.521,0,0,1,14.314,22.09Z" transform="translate(17.49 57.375)"/>
  <path id="Fill_18" data-name="Fill 18" d="M3.459,4.775q7.558.007,15.114.006,8.073,0,16.148-.005c2.176,0,3.429-.872,3.438-2.39A2.032,2.032,0,0,0,37.475.768a4.112,4.112,0,0,0-2.73-.759q-5.73-.006-11.46,0l-8.314,0Q9.149.011,3.329,0H3.288A3.017,3.017,0,0,0,.26,1.436,1.948,1.948,0,0,0,.384,3.577a3.774,3.774,0,0,0,3.075,1.2" transform="translate(11.13 133.875)"/>
  <path id="Fill_20" data-name="Fill 20" d="M3.022,4.757c2.148.016,4.3.025,6.45.025,2.208,0,4.41-.009,6.588-.026,1.79-.014,3.032-1,3.02-2.4S17.868.034,16.024.013C14.494,0,12.941,0,11.438,0l-1.947,0C8.863.009,8.231,0,7.6,0,6.137,0,4.623,0,3.133.011,1.127.03-.014.9,0,2.393c.014,1.466,1.144,2.35,3.022,2.364" transform="translate(20.67 122.719)"/>
  <path id="Fill_22" data-name="Fill 22" d="M2.354,19.1a2.726,2.726,0,0,0,.36.024,3.4,3.4,0,0,0,2.06-.763c6.948-5.382,12.3-9.56,17.34-13.546a4.735,4.735,0,0,0,1.042-1.348c.156-.259.318-.527.512-.805L23.85,2.4l-.209-.243c-.189-.22-.366-.473-.537-.717C22.683.84,22.285.273,21.68.11a3.97,3.97,0,0,0-3.087.521c-5.2,3.944-10.415,8.039-15.461,12L1.339,14.037C-.1,15.163-.407,16.722.548,18.009A2.7,2.7,0,0,0,2.354,19.1" transform="translate(68.37 33.469)"/>
  <path id="Fill_24" data-name="Fill 24" d="M23.083,1.672A5.175,5.175,0,0,0,21.854.391c-1.5-.97-2.92.127-3.386.488Q14.673,3.81,10.874,6.735q-4.749,3.658-9.492,7.323C-.11,15.212-.427,16.835.592,18.1a2.662,2.662,0,0,0,1.787,1.01,2.63,2.63,0,0,0,.317.019,3.521,3.521,0,0,0,2.128-.8c5.163-3.953,11.246-8.622,17.209-13.28A5.161,5.161,0,0,0,23.14,3.662c.162-.257.329-.522.523-.792l.187-.259-.21-.242c-.2-.237-.386-.473-.557-.7" transform="translate(68.37 58.969)"/>
  <path id="Fill_26" data-name="Fill 26" d="M23.132,1.461A3.121,3.121,0,0,0,21.793.185a3.447,3.447,0,0,0-2.871.279C12.754,5.125,6.514,10,1.15,14.2a2.639,2.639,0,0,0-.528,3.873,2.728,2.728,0,0,0,2.13,1.057A3.03,3.03,0,0,0,4.6,18.46C10.918,13.6,16.677,9.128,22.2,4.779a4.353,4.353,0,0,0,1.012-1.367c.142-.254.29-.517.464-.783l.17-.258-.2-.234c-.184-.212-.352-.448-.516-.676" transform="translate(68.37 98.813)"/>
  <path id="Fill_28" data-name="Fill 28" d="M23.1,1.413C22.7.827,22.325.273,21.747.123a4.023,4.023,0,0,0-3.1.446C13.059,4.8,7.458,9.209,2.041,13.468l-.758.6a2.7,2.7,0,0,0-.675,3.983,2.717,2.717,0,0,0,1.817,1.06,2.563,2.563,0,0,0,.3.018A3.232,3.232,0,0,0,4.7,18.384c6.67-5.164,12.175-9.466,17.325-13.54A5.331,5.331,0,0,0,23.136,3.45c.163-.258.331-.523.526-.793l.188-.26-.206-.246c-.194-.232-.369-.489-.539-.738" transform="translate(68.37 46.219)"/>
  <path id="Fill_30" data-name="Fill 30" d="M23.112,1.721A4.949,4.949,0,0,0,21.828.364C20.341-.566,18.915.537,18.445.9q-4.2,3.247-8.412,6.483-4.342,3.342-8.68,6.691A3.19,3.19,0,0,0,.015,16.21a2.505,2.505,0,0,0,.624,1.916,2.681,2.681,0,0,0,2.078,1,3.358,3.358,0,0,0,2.025-.745c6.808-5.2,12.32-9.447,17.346-13.362A4.874,4.874,0,0,0,23.141,3.7c.16-.254.326-.516.524-.789l.185-.256-.2-.241c-.191-.226-.366-.463-.535-.693" transform="translate(68.37 86.063)"/>
</svg>
