<svg id="Group_25" data-name="Group 25" xmlns="http://www.w3.org/2000/svg" xmlns:xlink="http://www.w3.org/1999/xlink" width="106" height="132" viewBox="0 0 106 132">
  <defs>
    <clipPath id="clip-path">
      <path id="Clip_6" data-name="Clip 6" d="M0,0H5V13H0Z" fill="#ffc400"/>
    </clipPath>
    <clipPath id="clip-path-2">
      <path id="Clip_21" data-name="Clip 21" d="M0,0H13V5H0Z" fill="#ffc400"/>
    </clipPath>
  </defs>
  <path id="Fill_1" data-name="Fill 1" d="M34.159,114a12.774,12.774,0,0,1-6.217-2.953c-1.446-1.388-1.715-2.571-.72-3.641.92-.989,2.214-.866,3.653.349,2.958,2.5,6.659,2.5,9.244-.068a21.9,21.9,0,0,0,1.811-2.432c-1.939,0-3.511,0-5.082,0-1.17,0-2.344.046-3.511-.022a2.227,2.227,0,0,1-2.287-2.292,2.18,2.18,0,0,1,2.373-2.053c3.338-.033,6.676-.006,10.015-.022a6.014,6.014,0,0,0,1.538-.174A1.945,1.945,0,0,0,46.5,98.577a1.972,1.972,0,0,0-1.819-2.015c-.768-.1-1.559-.027-2.336-.08A2.3,2.3,0,0,1,39.914,94.3c-.014-1.276.964-2.118,2.525-2.191a16.481,16.481,0,0,0,2.452-.17A1.915,1.915,0,0,0,46.5,89.776,1.955,1.955,0,0,0,44.64,87.8c-.772-.087-1.559-.031-2.336-.091A2.278,2.278,0,0,1,39.917,85.5c.015-1.233.943-2.055,2.433-2.153.173-.011.347-.006.52-.009,3.3-.047,3.964-.809,3.609-4.289-.34-.033-.707-.093-1.076-.1-1.084-.021-2.171.028-3.25-.041a2.152,2.152,0,1,1-.036-4.3c1.772-.1,3.553-.047,5.33-.051,3.018-.006,3.569-.544,3.57-3.507,0-.813.041-1.628-.007-2.438a11.607,11.607,0,0,1,4.624-10.224,27.47,27.47,0,0,0,7.39-9.172c5.325-10.738,4.715-21.238-1.986-31.137A29.75,29.75,0,0,0,37.359,4.62,29.939,29.939,0,0,0,13.3,13.777,29.363,29.363,0,0,0,4.563,37.735a29.6,29.6,0,0,0,9.288,19.391,3.494,3.494,0,0,0,.384.346c4.4,3.143,6.071,7.39,5.723,12.708-.27,4.138.168,4.374,4.323,4.374,3.382,0,6.763-.005,10.145.006a7.03,7.03,0,0,1,1.545.142,2.113,2.113,0,0,1-.169,4.151,12.439,12.439,0,0,1-1.814.088c-3.155.008-6.31,0-9.644,0,0,.678-.019,1.217,0,1.755.074,1.782.843,2.573,2.646,2.625,1.559.046,3.121.012,4.682.013,1.127,0,2.255-.025,3.382.009,1.631.049,2.535.815,2.568,2.115.034,1.355-.9,2.221-2.576,2.252-2.47.045-4.942.01-7.413.017a9.1,9.1,0,0,0-1.426.076,1.981,1.981,0,0,0-1.792,2.036,1.914,1.914,0,0,0,1.553,2.086,10.47,10.47,0,0,0,2.19.174c2.3.021,4.6-.011,6.893.016,1.625.019,2.535.795,2.57,2.1.036,1.355-.908,2.232-2.574,2.258-2.514.04-5.029.009-7.543.015a7.55,7.55,0,0,0-1.3.062,2.131,2.131,0,0,0-.369,4.114,7.894,7.894,0,0,0,1.01.236,2.155,2.155,0,0,1,1.873,2.487,2.2,2.2,0,0,1-2.553,1.827,6.542,6.542,0,0,1-5.18-10.049c.185-.285.391-.557.578-.822-2.192-3.823-2.2-5.454.034-8.886-1.554-1.713-1.762-3.849-1.736-6.074a1.562,1.562,0,0,0-.706-1.14,6.779,6.779,0,0,1-3.7-6.2c-.023-1.326-.053-2.654.006-3.978A7.039,7.039,0,0,0,12.8,62.089a36.168,36.168,0,0,1-7.257-8.167A33.765,33.765,0,0,1,.192,31.772,33.663,33.663,0,0,1,16.457,5.629C26.292-.551,36.921-1.691,47.8,2.45c11.87,4.517,19.374,13.13,22.253,25.367a32.421,32.421,0,0,1-5.1,26.668,48.246,48.246,0,0,1-6.532,7.255c-1.963,1.884-3.148,3.9-2.978,6.646.08,1.278.045,2.567,0,3.85a6.459,6.459,0,0,1-3.652,5.93,1.271,1.271,0,0,0-.787,1.406,7.7,7.7,0,0,1-1.664,5.845c2.19,3.837,2.189,5.406-.011,8.906A6.7,6.7,0,0,1,50.87,99.76a6.473,6.473,0,0,1-3.693,4.807A1.984,1.984,0,0,0,46.2,105.6a10.86,10.86,0,0,1-8.731,8.171,2.018,2.018,0,0,0-.449.225Z" transform="translate(17 18)" fill="#ffc400"/>
  <path id="Fill_3" data-name="Fill 3" d="M15.563,44c-1.406,0-2.216-.979-2.221-2.686-.016-5.38-.014-10.843-.011-16.127q0-2.833,0-5.667V17.645H13.1q-.566,0-1.12,0h-.006q-.654,0-1.3,0c-.583,0-1.066,0-1.519-.012a9.717,9.717,0,0,1-5.63-1.8A8.556,8.556,0,0,1,.351,11.121,8.694,8.694,0,0,1,.3,6.4,8.657,8.657,0,0,1,2.858,2.427,8.48,8.48,0,0,1,8.706,0a9.455,9.455,0,0,1,3.471.7,8.2,8.2,0,0,1,5.5,7.342c.093,1.165.069,2.364.045,3.524-.011.532-.022,1.081-.022,1.626h4.647c0-.556-.01-1.114-.019-1.653-.021-1.214-.041-2.361.038-3.526a8.326,8.326,0,0,1,2.7-5.575A8.986,8.986,0,0,1,30.945.072l.225,0a8.975,8.975,0,0,1,5.785,2.117A8.442,8.442,0,0,1,39.9,7.46a8.8,8.8,0,0,1-1.925,7.012A9.28,9.28,0,0,1,31,17.639c-.458.012-.947.018-1.54.018-.43,0-.858,0-1.31-.006h-.006c-.46,0-.936-.006-1.422-.006V23.92c0,5.5,0,11.187,0,16.779a8,8,0,0,1-.121,1.535A2.038,2.038,0,0,1,24.547,44c-.051,0-.1,0-.156,0a2,2,0,0,1-2.039-1.8,9.768,9.768,0,0,1-.089-1.541c0-5.686,0-11.449,0-17.022V17.744H17.794V40.42c0,.086,0,.172,0,.258v.005h0c0,.21,0,.426,0,.639-.053,1.72-.8,2.645-2.157,2.677ZM31.132,4.466l-.153,0A4.265,4.265,0,0,0,26.785,8.44c-.064,1.046-.049,2.108-.033,3.233.008.535.015,1.087.015,1.669.616-.033,1.224-.047,1.811-.06A23.216,23.216,0,0,0,32.347,13,3.884,3.884,0,0,0,34.9,11.256a4.321,4.321,0,0,0,.635-3.044A4.342,4.342,0,0,0,31.132,4.466Zm-22.245,0H8.86A4.413,4.413,0,0,0,4.449,8.679a4.224,4.224,0,0,0,1.139,3.086,4.567,4.567,0,0,0,3.089,1.45c.5.031,1.036.046,1.691.046.452,0,.9-.007,1.384-.014.5-.007,1.021-.015,1.561-.015,0-.5.005-.995.011-1.47.011-1.044.022-2.029-.022-3.02A4.521,4.521,0,0,0,11.97,5.658,4.4,4.4,0,0,0,8.89,4.464Z" transform="translate(33 44)" fill="#ffc401"/>
  <g id="Group_7" data-name="Group 7" transform="translate(50)">
    <path id="Clip_6-2" data-name="Clip 6" d="M0,0H5V13H0Z" fill="#ffc400"/>
    <g id="Group_7-2" data-name="Group 7" clip-path="url(#clip-path)">
      <path id="Fill_5" data-name="Fill 5" d="M4.982,6.6c0,1.314.044,2.628-.009,3.94A2.322,2.322,0,0,1,2.514,13,2.3,2.3,0,0,1,.041,10.554c-.054-2.711-.057-5.424,0-8.135A2.33,2.33,0,0,1,2.568,0a2.342,2.342,0,0,1,2.4,2.4c.064,1.4.014,2.8.016,4.194" transform="translate(0 0)" fill="#ffc400"/>
    </g>
  </g>
  <path id="Fill_8" data-name="Fill 8" d="M2.268,12A2.146,2.146,0,0,1,.2,8.982c1.32-2.76,2.777-5.446,4.276-8.1a1.675,1.675,0,0,1,2.5-.563A2.078,2.078,0,0,1,7.8,2.976c-1.373,2.778-2.83,5.509-4.34,8.2-.262.468-.939.656-1.2.824" transform="translate(72 7)" fill="#ffc400"/>
  <path id="Fill_10" data-name="Fill 10" d="M1.916,0a19.529,19.529,0,0,1,1.85.786Q7.119,2.7,10.441,4.66c1.505.89,1.938,2.113,1.223,3.31-.683,1.143-1.919,1.359-3.382.526C5.935,7.16,3.6,5.8,1.274,4.427A2.042,2.042,0,0,1,.2,1.709C.527,1,1.359.53,1.916,0" transform="translate(7 25)" fill="#ffc400"/>
  <path id="Fill_12" data-name="Fill 12" d="M8,9.6a2.12,2.12,0,0,1-1.416,2.284,1.779,1.779,0,0,1-2.243-.933c-.8-1.371-1.528-2.8-2.278-4.205C1.452,5.6.81,4.465.261,3.281A2.28,2.28,0,0,1,.933.342,1.856,1.856,0,0,1,3.7,1.11C5.107,3.636,6.433,6.216,7.775,8.786A3.383,3.383,0,0,1,8,9.6" transform="translate(26 7)" fill="#ffc400"/>
  <path id="Fill_14" data-name="Fill 14" d="M12,2.406a4.8,4.8,0,0,1-1.221,1.353C8.371,5.131,5.9,6.407,3.421,7.674A2.307,2.307,0,0,1,.352,7.079a1.9,1.9,0,0,1,.836-2.846C3.653,2.872,6.144,1.544,8.676.289A2.206,2.206,0,0,1,12,2.406" transform="translate(87 26)" fill="#ffc400"/>
  <path id="Fill_16" data-name="Fill 16" d="M12,2.431a5.167,5.167,0,0,1-1.263,1.354C8.366,5.138,5.932,6.4,3.495,7.648a2.347,2.347,0,0,1-3.173-.6,1.933,1.933,0,0,1,.909-2.84C3.661,2.868,6.112,1.556,8.6.31A2.226,2.226,0,0,1,12,2.431" transform="translate(7 72)" fill="#ffc400"/>
  <path id="Fill_18" data-name="Fill 18" d="M12,5.626A2.118,2.118,0,0,1,8.96,7.775C6.224,6.475,3.565,5.035.933,3.566A1.679,1.679,0,0,1,.294,1.085,2.093,2.093,0,0,1,3.036.212c2.754,1.353,5.458,2.793,8.127,4.28.473.263.683.915.836,1.134" transform="translate(87 72)" fill="#ffc400"/>
  <g id="Group_22" data-name="Group 22" transform="translate(0 50)">
    <path id="Clip_21-2" data-name="Clip 21" d="M0,0H13V5H0Z" fill="#ffc400"/>
    <g id="Group_22-2" data-name="Group 22" clip-path="url(#clip-path-2)">
      <path id="Fill_20" data-name="Fill 20" d="M6.442,4.983c-1.4,0-2.8.045-4.2-.014A2.308,2.308,0,0,1,0,2.544,2.316,2.316,0,0,1,2.082.074c2.964-.1,5.934-.1,8.9.01a2.229,2.229,0,0,1,2.014,2.634,2.2,2.2,0,0,1-2.228,2.254c-1.44.055-2.882.012-4.324.011" transform="translate(0)" fill="#ffc400"/>
    </g>
  </g>
  <path id="Fill_23" data-name="Fill 23" d="M6.47,4.985c-1.4,0-2.8.041-4.2-.011A2.227,2.227,0,0,1,0,2.619,2.241,2.241,0,0,1,2.108.071q4.383-.145,8.772.006A2.333,2.333,0,0,1,13,2.648a2.3,2.3,0,0,1-2.329,2.326c-1.4.049-2.8.011-4.2.011" transform="translate(93 50)" fill="#ffc400"/>
</svg>
