<svg id="Group_25" data-name="Group 25" xmlns="http://www.w3.org/2000/svg" xmlns:xlink="http://www.w3.org/1999/xlink" width="87" height="108" viewBox="0 0 87 108">
  <defs>
    <clipPath id="clip-path">
      <path id="Clip_6" data-name="Clip 6" d="M0,0H4V11H0Z" fill="#267493"/>
    </clipPath>
    <clipPath id="clip-path-2">
      <path id="Clip_21" data-name="Clip 21" d="M0,0H11V4H0Z" fill="#267493"/>
    </clipPath>
  </defs>
  <path id="Fill_1" data-name="Fill 1" d="M27.9,93a10.441,10.441,0,0,1-5.078-2.409c-1.182-1.133-1.4-2.1-.588-2.97.752-.807,1.809-.706,2.984.285,2.417,2.037,5.44,2.036,7.552-.055a17.867,17.867,0,0,0,1.479-1.984c-1.584,0-2.868,0-4.152,0-.956,0-1.915.037-2.868-.018a1.818,1.818,0,0,1-1.868-1.87A1.78,1.78,0,0,1,27.3,82.3c2.727-.027,5.454-.005,8.181-.018a4.919,4.919,0,0,0,1.256-.142,1.587,1.587,0,0,0,1.245-1.724A1.61,1.61,0,0,0,36.5,78.774c-.627-.085-1.274-.022-1.909-.065a1.878,1.878,0,0,1-1.987-1.777c-.011-1.041.787-1.728,2.062-1.787a13.48,13.48,0,0,0,2-.139,1.563,1.563,0,0,0,1.312-1.767,1.6,1.6,0,0,0-1.517-1.61c-.631-.071-1.274-.025-1.908-.074a1.86,1.86,0,0,1-1.951-1.8c.012-1.006.77-1.677,1.987-1.757.141-.009.283-.005.425-.007,2.695-.039,3.238-.66,2.948-3.5-.277-.027-.578-.076-.879-.081-.885-.017-1.773.023-2.655-.034a1.756,1.756,0,1,1-.029-3.51c1.448-.079,2.9-.038,4.354-.041,2.465-.005,2.915-.444,2.916-2.861,0-.663.034-1.328-.006-1.989a9.463,9.463,0,0,1,3.777-8.341,22.415,22.415,0,0,0,6.037-7.483c4.35-8.76,3.851-17.326-1.622-25.4A24.31,24.31,0,0,0,30.518,3.769a24.476,24.476,0,0,0-19.656,7.47A23.936,23.936,0,0,0,3.728,30.784,24.135,24.135,0,0,0,11.315,46.6a2.853,2.853,0,0,0,.314.282c3.6,2.564,4.959,6.028,4.675,10.367-.221,3.376.137,3.568,3.532,3.568,2.762,0,5.525,0,8.287.005a5.751,5.751,0,0,1,1.262.116,1.723,1.723,0,0,1-.138,3.386,10.176,10.176,0,0,1-1.482.072c-2.577.006-5.154,0-7.878,0,0,.553-.015.993,0,1.432a1.92,1.92,0,0,0,2.161,2.142c1.274.037,2.55.01,3.824.011.921,0,1.842-.02,2.762.008,1.332.04,2.071.665,2.1,1.726.028,1.105-.733,1.812-2.1,1.837-2.018.037-4.037.008-6.056.014a7.441,7.441,0,0,0-1.164.062,1.616,1.616,0,0,0-1.464,1.661A1.562,1.562,0,0,0,21.216,75,8.564,8.564,0,0,0,23,75.138c1.877.017,3.754-.009,5.631.013,1.327.016,2.071.649,2.1,1.716.03,1.105-.742,1.82-2.1,1.842-2.054.033-4.108.008-6.162.012a6.176,6.176,0,0,0-1.059.05,1.738,1.738,0,0,0-.3,3.356,6.456,6.456,0,0,0,.825.192,1.758,1.758,0,0,1,1.53,2.029,1.8,1.8,0,0,1-2.085,1.49,5.336,5.336,0,0,1-4.232-8.2c.151-.232.319-.454.472-.671-1.791-3.119-1.793-4.449.028-7.249-1.27-1.4-1.439-3.14-1.418-4.955a1.274,1.274,0,0,0-.577-.93,5.529,5.529,0,0,1-3.02-5.056c-.019-1.082-.043-2.165,0-3.245a5.739,5.739,0,0,0-2.179-4.883A29.519,29.519,0,0,1,4.53,43.989,27.516,27.516,0,0,1,.157,25.919,27.457,27.457,0,0,1,13.444,4.592,27.677,27.677,0,0,1,39.049,2c9.7,3.685,15.827,10.711,18.178,20.694a26.42,26.42,0,0,1-4.165,21.756,39.377,39.377,0,0,1-5.336,5.919,6.622,6.622,0,0,0-2.433,5.422c.065,1.043.037,2.094,0,3.14a5.268,5.268,0,0,1-2.983,4.838,1.037,1.037,0,0,0-.643,1.147,6.273,6.273,0,0,1-1.359,4.769c1.789,3.13,1.788,4.41-.009,7.265a5.459,5.459,0,0,1,1.252,4.435A5.281,5.281,0,0,1,38.539,85.3a1.619,1.619,0,0,0-.8.845,8.867,8.867,0,0,1-7.132,6.666,1.649,1.649,0,0,0-.366.184Z" transform="translate(14 15)" fill="#267493"/>
  <path id="Fill_3" data-name="Fill 3" d="M12.838,36c-1.159,0-1.827-.8-1.831-2.2C10.994,29.418,11,24.959,11,20.647v-.005q0-2.335,0-4.67V14.437h-.22l-.9,0H9.876q-.545,0-1.081,0c-.476,0-.87,0-1.242-.01a8.06,8.06,0,0,1-4.645-1.469A7,7,0,0,1,.29,9.1,7.055,7.055,0,0,1,.251,5.237a7.077,7.077,0,0,1,2.107-3.25A7.029,7.029,0,0,1,7.183,0a7.853,7.853,0,0,1,2.863.571,6.718,6.718,0,0,1,4.541,6.008,28.594,28.594,0,0,1,.037,2.88c-.009.436-.018.887-.018,1.333H18.44c0-.455-.008-.912-.016-1.354-.017-.993-.034-1.93.031-2.883a6.791,6.791,0,0,1,2.228-4.562A7.446,7.446,0,0,1,25.529.058l.185,0a7.443,7.443,0,0,1,4.773,1.732A6.893,6.893,0,0,1,32.92,6.1a7.163,7.163,0,0,1-1.568,5.713,7.675,7.675,0,0,1-5.777,2.615c-.379.01-.785.014-1.276.014-.353,0-.7,0-1.075,0h-.006c-.379,0-.771,0-1.172,0v4.532c0,4.7,0,9.555,0,14.33a6.462,6.462,0,0,1-.1,1.256A1.677,1.677,0,0,1,20.253,36c-.043,0-.086,0-.13,0a1.643,1.643,0,0,1-1.683-1.475,8.057,8.057,0,0,1-.073-1.261c0-4.5,0-9.079,0-13.506V14.518H14.68V33.07c0,.073,0,.145,0,.218,0,.174,0,.349,0,.521-.044,1.406-.66,2.164-1.78,2.19ZM25.683,3.654l-.126,0a3.5,3.5,0,0,0-3.46,3.25c-.053.857-.041,1.727-.028,2.649.006.438.013.889.013,1.363.512-.027,1.017-.039,1.5-.05a19.24,19.24,0,0,0,3.1-.234A3.394,3.394,0,0,0,29.32,6.718,3.574,3.574,0,0,0,25.683,3.654Zm-18.348,0H7.311a3.681,3.681,0,0,0-2.521,1A3.59,3.59,0,0,0,3.67,7.1a3.438,3.438,0,0,0,.94,2.525,3.783,3.783,0,0,0,2.549,1.186c.413.026.858.038,1.4.038.373,0,.747-.005,1.142-.011.413-.006.839-.012,1.283-.012,0-.41,0-.811.009-1.2.009-.855.018-1.663-.018-2.474a3.685,3.685,0,0,0-1.1-2.523A3.644,3.644,0,0,0,7.335,3.652Z" transform="translate(27 36)" fill="#267493"/>
  <g id="Group_7" data-name="Group 7" transform="translate(41)">
    <path id="Clip_6-2" data-name="Clip 6" d="M0,0H4V11H0Z" fill="#267493"/>
    <g id="Group_7-2" data-name="Group 7" clip-path="url(#clip-path)">
      <path id="Fill_5" data-name="Fill 5" d="M3.986,5.582c0,1.112.035,2.224-.007,3.334A1.912,1.912,0,0,1,2.011,11,1.894,1.894,0,0,1,.033,8.93c-.043-2.294-.046-4.59,0-6.883A1.914,1.914,0,0,1,2.054,0,1.929,1.929,0,0,1,3.973,2.033c.051,1.181.011,2.366.013,3.549" transform="translate(0 0)" fill="#267493"/>
    </g>
  </g>
  <path id="Fill_8" data-name="Fill 8" d="M1.985,10A1.8,1.8,0,0,1,.179,7.485C1.334,5.185,2.609,2.947,3.92.738A1.506,1.506,0,0,1,6.106.269,1.69,1.69,0,0,1,6.828,2.48c-1.2,2.315-2.477,4.591-3.8,6.834C2.8,9.7,2.209,9.86,1.985,10" transform="translate(59 6)" fill="#267493"/>
  <path id="Fill_10" data-name="Fill 10" d="M1.6,0c.7.274,1.146.4,1.542.612Q5.932,2.1,8.7,3.624C9.955,4.316,10.315,5.268,9.72,6.2c-.569.889-1.6,1.057-2.818.409C4.946,5.569,3,4.508,1.062,3.444.184,2.962-.265,2.195.165,1.329.44.779,1.132.413,1.6,0" transform="translate(6 21)" fill="#267493"/>
  <path id="Fill_12" data-name="Fill 12" d="M7,8A1.766,1.766,0,0,1,5.761,9.9,1.586,1.586,0,0,1,3.8,9.127c-.7-1.142-1.337-2.331-1.993-3.5C1.27,4.665.708,3.72.229,2.734A1.845,1.845,0,0,1,.816.285a1.664,1.664,0,0,1,2.421.64C4.469,3.03,5.629,5.18,6.8,7.321A2.714,2.714,0,0,1,7,8" transform="translate(21 6)" fill="#267493"/>
  <path id="Fill_14" data-name="Fill 14" d="M10,2.105A4.137,4.137,0,0,1,8.982,3.29C6.976,4.49,4.914,5.606,2.851,6.715a1.865,1.865,0,0,1-2.558-.52,1.7,1.7,0,0,1,.7-2.49C3.044,2.513,5.12,1.351,7.23.253A1.848,1.848,0,0,1,10,2.105" transform="translate(71 21)" fill="#267493"/>
  <path id="Fill_16" data-name="Fill 16" d="M10,2.127A4.447,4.447,0,0,1,8.947,3.312C6.972,4.5,4.944,5.6,2.912,6.692A1.9,1.9,0,0,1,.268,6.166a1.73,1.73,0,0,1,.758-2.485C3.051,2.51,5.093,1.361,7.166.271A1.864,1.864,0,0,1,10,2.127" transform="translate(6 59)" fill="#267493"/>
  <path id="Fill_18" data-name="Fill 18" d="M10,4.923c.031,1.594-1.29,2.5-2.533,1.881-2.28-1.138-4.5-2.4-6.689-3.683A1.507,1.507,0,0,1,.245.95,1.7,1.7,0,0,1,2.53.185C4.825,1.369,7.078,2.629,9.3,3.93c.394.23.569.8.7.992" transform="translate(71 59)" fill="#267493"/>
  <g id="Group_22" data-name="Group 22" transform="translate(0 41)">
    <path id="Clip_21-2" data-name="Clip 21" d="M0,0H11V4H0Z" fill="#267493"/>
    <g id="Group_22-2" data-name="Group 22" clip-path="url(#clip-path-2)">
      <path id="Fill_20" data-name="Fill 20" d="M5.451,3.987c-1.184,0-2.369.036-3.551-.011A1.893,1.893,0,0,1,0,2.035,1.888,1.888,0,0,1,1.762.059C4.269-.018,6.783-.025,9.29.067a1.808,1.808,0,0,1,1.7,2.107,1.811,1.811,0,0,1-1.885,1.8c-1.218.044-2.439.01-3.658.009" transform="translate(0)" fill="#267493"/>
    </g>
  </g>
  <path id="Fill_23" data-name="Fill 23" d="M5.475,3.988c-1.184,0-2.369.033-3.551-.009A1.831,1.831,0,0,1,0,2.1,1.826,1.826,0,0,1,1.784.057q3.709-.116,7.423,0A1.9,1.9,0,0,1,11,2.118,1.9,1.9,0,0,1,9.026,3.979c-1.183.039-2.367.008-3.551.009" transform="translate(76 41)" fill="#267493"/>
</svg>
