<svg id="Group_20" data-name="Group 20" xmlns="http://www.w3.org/2000/svg" xmlns:xlink="http://www.w3.org/1999/xlink" width="153" height="158" viewBox="0 0 153 158">
  <defs>
    <clipPath id="clip-path">
      <path id="Clip_2" data-name="Clip 2" d="M0,0H86.753V79H0Z" fill="none"/>
    </clipPath>
    <clipPath id="clip-path-2">
      <path id="Clip_5" data-name="Clip 5" d="M0,0H124.608V148.52H0Z" fill="none"/>
    </clipPath>
    <clipPath id="clip-path-3">
      <path id="Clip_10" data-name="Clip 10" d="M0,156.42H153V0H0Z" fill="none"/>
    </clipPath>
  </defs>
  <g id="Group_3" data-name="Group 3" transform="translate(64.67 79)">
    <path id="Clip_2-2" data-name="Clip 2" d="M0,0H86.753V79H0Z" fill="none"/>
    <g id="Group_3-2" data-name="Group 3" clip-path="url(#clip-path)">
      <path id="Fill_1" data-name="Fill 1" d="M50.938,79H44.309c-.818-.172-1.657-.324-2.468-.472a43.285,43.285,0,0,1-5.3-1.2A39.99,39.99,0,0,1,21.315,68.7a40.424,40.424,0,0,1-9.881-14.545c-.486-1.185-1.031-1.6-2.082-1.6-.1,0-.2,0-.315.012-.7.049-1.455.073-2.3.073-.991,0-1.971-.032-2.972-.068A3.631,3.631,0,0,1,.043,48.814c-.056-3.487-.058-7.12-.005-11.106a3.89,3.89,0,0,1,1.037-2.752,4.019,4.019,0,0,1,2.755-1.1c.58-.025,1.2-.037,1.944-.037.527,0,1.054.006,1.563.012s.992.011,1.475.011l1.2-4.477,1.217-4.539H4.72a4.832,4.832,0,0,1-3.62-1.1,5.082,5.082,0,0,1-1.078-3.7q0-1.168,0-2.337c0-2.428-.008-4.935.008-7.4A4.373,4.373,0,0,1,1.109,7.139,4.244,4.244,0,0,1,4.216,6.02C5.616,6,7.122,6,8.82,6c1.743,0,3.448.008,5.337.017a4.564,4.564,0,0,1,3.4,1.127,4.79,4.79,0,0,1,1.1,3.461c0,.467,0,.941,0,1.49v.03c0,.264,0,.549,0,.862.185-.168.345-.311.487-.439.255-.228.457-.409.65-.6C27.947,4.02,37.068,0,46.908,0A41.189,41.189,0,0,1,59.146,1.958,38.5,38.5,0,0,1,77.069,13.237a40.557,40.557,0,0,1,9,19.373,38.072,38.072,0,0,1-.388,16.223,39.376,39.376,0,0,1-2.633,7.479,40.079,40.079,0,0,1-9.317,12.61,39.31,39.31,0,0,1-6.355,4.7A37.751,37.751,0,0,1,52.1,78.728a4.986,4.986,0,0,0-.794.176c-.119.033-.242.067-.363.1ZM47.65,4.69A34.211,34.211,0,0,0,23.281,14.857a34.769,34.769,0,0,0-7.4,11.053,35.132,35.132,0,0,0-2.75,13.559A34.927,34.927,0,0,0,34.277,71.7,33.925,33.925,0,0,0,47.66,74.434h.01A34.91,34.91,0,0,0,72.04,14.868,34.562,34.562,0,0,0,61.068,7.425,34.019,34.019,0,0,0,47.662,4.69H47.65ZM4.634,38.478v9.456H9.29l-.436-4.813-.421-4.643Zm6.256-18.225c.372,0,.7.009.981.017l.11,0c.249.008.465.014.659.014a1.522,1.522,0,0,0,1.116-.278c.394-.4.4-1.374.385-3.367-.013-1.381-.01-2.785-.007-4.142q0-.926,0-1.851H4.645v9.493c.073.019.131.037.182.053a.743.743,0,0,0,.206.046l1.5.01c.82.006,1.664.013,2.494.013.572,0,1.087,0,1.574-.009Z"/>
    </g>
  </g>
  <g id="Group_6" data-name="Group 6" transform="translate(0 1.58)">
    <path id="Clip_5-2" data-name="Clip 5" d="M0,0H124.608V148.52H0Z" fill="none"/>
    <g id="Group_6-2" data-name="Group 6" clip-path="url(#clip-path-2)">
      <path id="Fill_4" data-name="Fill 4" d="M.043,74.174q0-30.123,0-60.246C.051,7.283,3.875,2.1,9.991.5A15.69,15.69,0,0,1,13.915.022Q62.331-.016,110.748.008c8.066,0,13.817,5.613,13.836,13.594.044,18.215.016,36.43.012,54.645,0,1.935-.677,2.874-2.1,2.941A2.124,2.124,0,0,1,120.1,69.33a9.082,9.082,0,0,1-.088-1.808q-.007-26.868-.01-53.737c0-4.819-2.772-8.262-7.268-9.1a11.729,11.729,0,0,0-2.13-.137q-48.264-.009-96.527,0c-5.76,0-9.442,3.652-9.443,9.394q-.011,60.322,0,120.643c0,5.736,3.659,9.328,9.488,9.331q32.813.014,65.626.011a8.422,8.422,0,0,1,2.119.178,2.024,2.024,0,0,1,1.6,2.274,2.08,2.08,0,0,1-1.923,2.025,11.089,11.089,0,0,1-1.526.055c-21.875,0-43.752-.114-65.626.063C6.356,148.584-.055,142.7,0,134.268c.132-20.03.042-40.062.042-60.094" transform="translate(0 0)"/>
    </g>
  </g>
  <path id="Fill_7" data-name="Fill 7" d="M94.705,26.872V4.736H4.583c0,1.762.016,3.449,0,5.136-.022,1.77-.926,2.863-2.315,2.851S.026,11.647.015,9.841C0,7.993-.015,6.145.024,4.3A4.058,4.058,0,0,1,3.956.052C4.51,0,5.072,0,5.63,0Q49.669,0,93.708.011a10.758,10.758,0,0,1,2.865.282,3.986,3.986,0,0,1,2.761,4.016c.042,7.646.058,15.294,0,22.94-.022,2.756-1.8,4.337-4.656,4.342q-13.257.023-26.515.006H5.38c-4,0-5.365-1.392-5.367-5.456,0-1.54-.02-3.08.007-4.619.027-1.6.858-2.552,2.2-2.583,1.4-.032,2.317.949,2.353,2.615.036,1.738.008,3.476.008,5.319Z" transform="translate(12.619 14.22)"/>
  <path id="Clip_10-2" data-name="Clip 10" d="M0,156.42H153V0H0Z" fill="none"/>
  <g id="Mask_Group_20" data-name="Mask Group 20" clip-path="url(#clip-path-3)">
    <path id="Fill_9" data-name="Fill 9" d="M9.6,18.96c-1.936,0-3.906-.027-5.857-.08a3.714,3.714,0,0,1-2.627-1.073,3.889,3.889,0,0,1-1.04-2.681c-.1-3.874-.1-7.682,0-11.32C.131,1.45,1.663.034,4.167.017,5.872.006,7.646,0,9.441,0c1.7,0,3.471.005,5.274.015a4.28,4.28,0,0,1,3.1,1.077,4.216,4.216,0,0,1,1.1,3.068c.015,1.258.011,2.537.007,3.774q0,.792,0,1.581c0,.566,0,1.141,0,1.7,0,1.2.009,2.438-.01,3.658-.037,2.415-1.459,3.953-3.712,4.014C13.351,18.935,11.465,18.96,9.6,18.96ZM4.718,4.7v9.553h9.534V4.7Z" transform="translate(91.485 55.3)"/>
    <path id="Fill_11" data-name="Fill 11" d="M9.4,18.96c-1.82,0-3.648-.018-5.434-.053C1.535,18.859.06,17.324.019,14.8,0,13.551,0,12.279.009,11.049q0-.8,0-1.59c0-.563,0-1.134-.007-1.687C0,6.523-.008,5.232.023,3.964a4.07,4.07,0,0,1,1.1-2.851A3.959,3.959,0,0,1,3.963.029C5.769.01,7.615,0,9.449,0c1.805,0,3.651.009,5.486.028A4,4,0,0,1,17.783,1.1a4.011,4.011,0,0,1,1.1,2.858c.06,3.619.06,7.316,0,10.99a3.753,3.753,0,0,1-3.946,3.957C13.082,18.942,11.219,18.96,9.4,18.96ZM4.718,4.683v9.541h9.545V4.683Z" transform="translate(64.67 55.3)"/>
    <path id="Fill_12" data-name="Fill 12" d="M9.484,18.96c-1.882,0-3.773-.021-5.621-.063A3.9,3.9,0,0,1,1.13,17.84,3.862,3.862,0,0,1,.066,15.118C-.021,11.332-.021,7.526.065,3.8A3.66,3.66,0,0,1,4.005.027C5.923.009,7.789,0,9.551,0c1.88,0,3.724.01,5.481.03a3.709,3.709,0,0,1,3.883,3.839c0,.108.005.215.005.306q0,2.676,0,5.352c0,.566,0,1.136,0,1.687,0,1.2.01,2.444-.012,3.665A3.721,3.721,0,0,1,15.043,18.9C13.182,18.94,11.312,18.96,9.484,18.96ZM4.74,4.665V14.26h9.467V4.665H4.74Z" transform="translate(11.041 55.3)"/>
    <path id="Fill_13" data-name="Fill 13" d="M9.4,18.96c-1.954,0-3.878-.027-5.721-.079A3.629,3.629,0,0,1,.019,14.976C-.007,13.662,0,12.325.006,11.032v-.007c0-.559.006-1.138.006-1.707,0-.592,0-1.192-.006-1.772C0,6.322-.008,5.057.025,3.813A3.9,3.9,0,0,1,1.1,1.1,3.787,3.787,0,0,1,3.805.039C5.732.013,7.656,0,9.526,0c1.891,0,3.783.013,5.622.04a3.52,3.52,0,0,1,3.7,3.523c.109,3.872.111,7.831.005,11.769a3.548,3.548,0,0,1-3.68,3.558C13.188,18.936,11.246,18.96,9.4,18.96ZM4.7,4.666v9.565h9.527V4.666Z" transform="translate(39.433 55.3)"/>
    <path id="Fill_14" data-name="Fill 14" d="M9.375,18.96c-1.843,0-3.7-.011-5.507-.033a3.922,3.922,0,0,1-2.69-.992,3.6,3.6,0,0,1-1.1-2.607c-.1-3.763-.106-7.671-.009-11.617A3.582,3.582,0,0,1,3.834.067C5.8.022,7.734,0,9.571,0c1.911,0,3.795.024,5.6.072A3.73,3.73,0,0,1,17.9,1.2,4.24,4.24,0,0,1,18.91,4.056c.024,1.3.017,2.626.011,3.907q0,.8-.006,1.6c0,.573,0,1.156.006,1.72.007,1.242.014,2.525-.016,3.785a3.993,3.993,0,0,1-1.081,2.789,3.868,3.868,0,0,1-2.773,1.072C13.152,18.949,11.242,18.96,9.375,18.96ZM4.726,4.69v9.55h9.54V4.69Z" transform="translate(11.041 83.74)"/>
    <path id="Fill_15" data-name="Fill 15" d="M9.39,18.96c-1.8,0-3.583-.007-5.312-.02A4.053,4.053,0,0,1,1.1,17.848,4.256,4.256,0,0,1,.013,14.814C0,13.58,0,12.325.006,11.111q0-.749,0-1.5c0-.6,0-1.215-.005-1.807C0,6.542-.007,5.237.021,3.954A3.625,3.625,0,0,1,3.7.077C5.58.026,7.495,0,9.395,0s3.859.026,5.792.077a3.59,3.59,0,0,1,3.672,3.735c.09,3.824.092,7.632,0,11.317C18.8,17.5,17.285,18.924,14.8,18.941,12.963,18.954,11.144,18.96,9.39,18.96ZM4.721,4.7V14.3h9.464V4.7Z" transform="translate(39.433 83.74)"/>
    <path id="Fill_16" data-name="Fill 16" d="M9.556,18.96c-1.873,0-3.782-.015-5.674-.045A3.935,3.935,0,0,1,1.135,17.9,3.817,3.817,0,0,1,.068,15.182c-.089-3.674-.091-7.49,0-11.343a3.907,3.907,0,0,1,1.03-2.745A3.9,3.9,0,0,1,3.836.063C5.721.021,7.617,0,9.47,0c1.906,0,3.821.022,5.694.067,2.311.055,3.679,1.5,3.753,3.955,0,.1,0,.206,0,.306q0,2.607,0,5.213c0,.568,0,1.145,0,1.7v.007c0,1.2.01,2.438-.011,3.656a4.246,4.246,0,0,1-1.037,2.917,3.86,3.86,0,0,1-2.818,1.094C13.242,18.946,11.391,18.96,9.556,18.96ZM4.718,4.7v9.533h9.541V4.7Z" transform="translate(11.041 112.18)"/>
    <path id="Fill_17" data-name="Fill 17" d="M9.444,18.96c-1.946,0-3.886-.018-5.764-.054a3.628,3.628,0,0,1-3.664-3.73c0-.093-.007-.191-.007-.307,0-2.061,0-3.868,0-5.524,0-.563,0-1.133,0-1.685C0,6.452-.006,5.2.018,3.975A4.2,4.2,0,0,1,1,1.173,3.594,3.594,0,0,1,3.65.069C5.5.023,7.408,0,9.308,0c1.96,0,3.974.025,5.986.074a3.417,3.417,0,0,1,3.551,3.49c.109,3.935.11,7.909,0,11.811a3.482,3.482,0,0,1-3.676,3.536C13.235,18.944,11.308,18.96,9.444,18.96ZM4.7,4.7V14.27h9.48V4.7Z" transform="translate(39.433 112.18)"/>
    <path id="Fill_18" data-name="Fill 18" d="M29.911,60.039h-.15A30.02,30.02,0,0,1,29.991,0h.143a29.551,29.551,0,0,1,11.6,2.412,30.245,30.245,0,0,1,15.877,16A29.608,29.608,0,0,1,59.938,30.04,30.1,30.1,0,0,1,29.911,60.039Zm.077-55.515h0a25.495,25.495,0,0,0-.254,50.988H29.9a25.23,25.23,0,0,0,9.9-2.006,25.736,25.736,0,0,0,13.594-13.57A25.528,25.528,0,0,0,39.941,6.565a25.09,25.09,0,0,0-9.855-2.04h-.1Z" transform="translate(83.598 86.9)"/>
    <path id="Fill_19" data-name="Fill 19" d="M11.612,44.24c-1.417,0-2.169-.927-2.366-2.917-.807-.315-1.61-.622-2.387-.919-1.888-.722-3.672-1.4-5.446-2.171A2.15,2.15,0,0,1,.135,35.42a2.162,2.162,0,0,1,2.109-1.572,3.061,3.061,0,0,1,1.426.382l.258.138A10.218,10.218,0,0,0,8.8,35.98c.166,0,.335-.007.5-.019q0-1.31,0-2.615c0-3.5.005-7.118-.037-10.668,0-.327-.5-.739-.82-.922-.49-.284-1.01-.533-1.514-.773-.367-.175-.746-.356-1.11-.55C2.342,18.59.756,15.8,1.108,12.131A9.357,9.357,0,0,1,7.69,3.774c.328-.122.671-.214,1-.3.15-.04.3-.082.453-.125C9.563.8,10.132.023,11.583,0h.054c1.416,0,2.115.808,2.412,2.789.644.3,1.287.584,1.909.858A37.429,37.429,0,0,1,20,5.622a2.29,2.29,0,0,1,1.176,1.839,2.268,2.268,0,0,1-.922,1.926,2.21,2.21,0,0,1-1.363.5A3,3,0,0,1,17.375,9.4C16.7,9,16,8.666,15.187,8.279c-.385-.183-.782-.372-1.212-.585q0,1.153,0,2.261c0,2.924,0,5.687.027,8.426a1.151,1.151,0,0,0,.59.756,5.133,5.133,0,0,0,.97.366c.16.048.326.1.485.155a12.313,12.313,0,0,1,5.6,3.718,9.077,9.077,0,0,1,2.009,5.706,11.177,11.177,0,0,1-2.007,6.563,11.678,11.678,0,0,1-5.5,4.286c-.459.174-.925.318-1.419.47-.225.069-.457.141-.693.217-.161,2.559-.855,3.608-2.395,3.621Zm2.427-20.189V35.54a5.693,5.693,0,0,0,3.475-2.1,6.542,6.542,0,0,0,1.473-3.979C19.034,26.69,17.138,24.618,14.039,24.051ZM9.237,8.366A4.64,4.64,0,0,0,5.7,13.154a3.81,3.81,0,0,0,3.538,3.494Z" transform="translate(100.948 96.38)"/>
  </g>
</svg>
