<svg xmlns="http://www.w3.org/2000/svg" width="206.048" height="205.968" viewBox="0 0 206.048 205.968">
  <g id="Group_5" data-name="Group 5" transform="translate(-1177.591 -450.677)">
    <path id="Clip_2" data-name="Clip 2" d="M0,0H205.639V205.645H0Z" transform="translate(1177.591 450.677)" fill="none"/>
    <path id="Fill_1" data-name="Fill 1" d="M199.506,102.763A96.565,96.565,0,0,0,67.365,13.227c-.608.238-1.211.492-1.817.734-2.054.819-3.753.387-4.538-1.751-.772-2.1.151-3.684,2.249-4.352,6.322-2.012,12.555-4.526,19.026-5.811C135.838-8.589,187.27,23.165,201.915,75.679c16.007,57.4-21.263,117.3-79.731,128.16C66.7,214.142,13.728,179.413,2.425,124.033-5.61,84.664,6.471,51.207,36.451,24.418c1.106-.988,3.282-1.137,4.894-.986.516.048,1.314,2.425,1.088,3.558-.216,1.087-1.5,2.043-2.471,2.885A96.632,96.632,0,0,0,13.337,67.433c-22.559,56.653,13.448,120.631,73.44,130.5,53.559,8.814,102.718-26.675,111.392-80.511.779-4.833.906-9.772,1.336-14.662" transform="translate(1178 451)"/>
    <path id="Clip_2-2" data-name="Clip 2" d="M0,0H205.639V205.645H0Z" transform="translate(1177.591 450.677)" fill="none"/>
    <path id="Fill_4" data-name="Fill 4" d="M78.678,157.2C33.95,156.688-1.69,119.653.062,75.1a78.6,78.6,0,0,1,157.089,6.042A75.766,75.766,0,0,1,139.373,127.9a6.217,6.217,0,0,1-4.013,2.082c-2.04.094-3.157-2.427-2.217-4.437a11.412,11.412,0,0,1,1.529-2.113A71.866,71.866,0,0,0,93.383,7.885c-41-8.934-81.908,20.53-86.314,62.161C2.949,108.972,29.2,143.4,67.821,149.339c18.951,2.913,36.415-1.356,52.227-12.219.629-.433,1.23-.9,1.862-1.334,1.792-1.218,3.571-1.292,4.864.593,1.279,1.866.6,3.459-1.154,4.763A74.791,74.791,0,0,1,96.13,154.7c-5.74,1.2-11.63,1.694-17.452,2.507" transform="translate(1202 475)"/>
    <path id="Fill_6" data-name="Fill 6" d="M20.571,111.506h-.006a3,3,0,0,1-2.226-.81,4.325,4.325,0,0,1-.974-3.181c.034-2.929.027-5.918.02-8.808,0-1.225-.006-2.49-.006-3.741A24.045,24.045,0,0,1,6.552,89.393,21.413,21.413,0,0,1,.571,78.718a10.461,10.461,0,0,1-.418-4.849c.343-1.319,1.733-3.079,2.74-3.142l.069,0c1.04,0,2.52,1.4,3.2,2.65a6.14,6.14,0,0,1,.511,2.515,9.4,9.4,0,0,0,.271,1.96,14.418,14.418,0,0,0,3.7,6.45,15.833,15.833,0,0,0,6.733,3.793V82.916c0-3.285,0-6.493,0-9.7,0-1.08.008-2.178.016-3.241v-.005c.022-2.934.045-5.968-.1-8.944a3.527,3.527,0,0,0-1.856-2.591,25.474,25.474,0,0,1-6.6-3.288,20.915,20.915,0,0,1-4.881-4.772,20.115,20.115,0,0,1-3-6.052,23.182,23.182,0,0,1-.944-7.129,20.862,20.862,0,0,1,4.43-12.748,22.8,22.8,0,0,1,11.7-7.534c.184-.053.367-.1.619-.17l.006,0,.6-.164c0-1.207,0-2.443.008-3.639.009-2.862.019-5.822-.024-8.746A4.63,4.63,0,0,1,18.346.8,2.972,2.972,0,0,1,20.553,0L20.7,0c2.08.06,3.114,1.452,3.073,4.136C23.733,7,23.742,9.894,23.751,12.7c0,1.175.008,2.386.008,3.572.78.333,1.567.637,2.329.932a29.842,29.842,0,0,1,4.731,2.145A20.608,20.608,0,0,1,41.08,36.173c.106,1.293.118,2.9-.744,3.879a2.976,2.976,0,0,1-2.233.9c-.066,0-.132,0-.2,0-2.527,0-3.042-2.141-3.211-4.236a15.052,15.052,0,0,0-2.877-8.064,15.288,15.288,0,0,0-6.858-4.891,1.938,1.938,0,0,0-.631-.083c-.127,0-.272-.008-.428-.022v28.83c5.833,1.7,10.245,4.432,13.112,8.129,3.071,3.96,4.394,9.062,3.933,15.164-.748,9.9-6.531,16.365-17.189,19.219,0,1.218,0,2.458-.006,3.656v.015c-.007,2.893-.015,5.879.021,8.817a4.35,4.35,0,0,1-.971,3.2,3.005,3.005,0,0,1-2.224.815Zm3.394-51.637V87.86a14.5,14.5,0,0,0,8.16-5.532,15.038,15.038,0,0,0,2.585-9.592,14.5,14.5,0,0,0-3.3-8.469A12.412,12.412,0,0,0,23.965,59.869ZM17.271,23.738h0a12.7,12.7,0,0,0-4.491,1.77,13.152,13.152,0,0,0-3.474,3.233,15.207,15.207,0,0,0-2.911,9.486,14.855,14.855,0,0,0,3.279,8.945,11.683,11.683,0,0,0,7.6,4.424V23.738Z" transform="translate(1260.76 499.118)"/>
    <path id="Fill_8" data-name="Fill 8" d="M2.279,7.187C1.474,5.924.034,4.676,0,3.4-.058,1.056,2.134-.232,4.274.035c1.205.15,3.261,2.379,3.018,3.072C6.73,4.7,5,5.933,3.739,7.312l-1.46-.125" transform="translate(1222.374 466.215)"/>
  </g>
</svg>
