<svg id="Group_15" data-name="Group 15" xmlns="http://www.w3.org/2000/svg" xmlns:xlink="http://www.w3.org/1999/xlink" width="147" height="150" viewBox="0 0 147 150">
  <defs>
    <clipPath id="clip-path">
      <path id="Clip_2" data-name="Clip 2" d="M0,0H121V150H0Z" fill="#2baae1"/>
    </clipPath>
    <clipPath id="clip-path-2">
      <path id="Clip_5" data-name="Clip 5" d="M0,0H68V68H0Z" fill="#2baae1"/>
    </clipPath>
  </defs>
  <g id="Group_3" data-name="Group 3">
    <path id="Clip_2-2" data-name="Clip 2" d="M0,0H121V150H0Z" fill="none"/>
    <g id="Group_3-2" data-name="Group 3" clip-path="url(#clip-path)">
      <path id="Fill_1" data-name="Fill 1" d="M0,15.4c.289-1,.551-2.013.872-3A17.781,17.781,0,0,1,18.217.011q42.265-.026,84.531.016a19.635,19.635,0,0,1,4.613.533c8.207,2.012,13.568,8.967,13.606,17.774.061,14,.022,36.943.011,50.942,0,2.739-1.334,4.308-3.569,4.315s-3.586-1.583-3.589-4.294c-.012-14,.009-36.943-.015-50.943-.009-5.37-2.956-9.461-7.765-10.774a13.941,13.941,0,0,0-3.62-.447Q60.486,7.1,18.554,7.123c-6.963,0-11.46,4.537-11.462,11.545q-.017,56.307,0,112.613c0,7.08,4.51,11.554,11.619,11.561,14.728.013,47.274,0,62,0,3.2,0,4.815,1.193,4.815,3.539s-1.646,3.573-4.807,3.573c-14.728,0-47.275-.121-62,.042C8.3,150.113,1.266,142.56.253,134.97c-.019-.145-.166-.273-.253-.409V15.4" transform="translate(0 0)" fill="#2baae1"/>
    </g>
  </g>
  <g id="Group_6" data-name="Group 6" transform="translate(79 80)">
    <path id="Clip_5-2" data-name="Clip 5" d="M0,0H68V68H0Z" fill="none"/>
    <g id="Group_6-2" data-name="Group 6" clip-path="url(#clip-path-2)">
      <path id="Fill_4" data-name="Fill 4" d="M36.872,68H31.226c-.719-.148-1.455-.285-2.166-.417-1.536-.285-3.122-.579-4.642-1.009a32.932,32.932,0,0,1-8.994-4.1,34.174,34.174,0,0,1-12.53-14.7A33.169,33.169,0,0,1,.256,38.256,33.966,33.966,0,0,1,6.808,13.6,34.36,34.36,0,0,1,28.773.435,32.451,32.451,0,0,1,34.06,0a34.174,34.174,0,0,1,21.88,8.09A33.263,33.263,0,0,1,67.573,28.426,33.968,33.968,0,0,1,40.35,67.4c-.791.158-1.6.291-2.381.419l-.01,0c-.356.058-.724.119-1.086.181h0ZM34.045,5.273h0A28.9,28.9,0,0,0,7.471,22.842,28.636,28.636,0,0,0,7.478,45.2,29.054,29.054,0,0,0,22.824,60.521a28.688,28.688,0,0,0,22.37,0A29.108,29.108,0,0,0,60.55,45.185a28.531,28.531,0,0,0,.016-22.3A29.067,29.067,0,0,0,45.273,7.566,28.436,28.436,0,0,0,34.125,5.274h-.081Z" fill="#2baae1"/>
    </g>
  </g>
  <path id="Fill_7" data-name="Fill 7" d="M39.462,6.995q-17.335,0-34.67,0a12.213,12.213,0,0,1-1.68-.044A3.551,3.551,0,0,1,0,3.412,3.483,3.483,0,0,1,3.26.04C3.817-.012,4.381,0,4.941,0Q39.526,0,74.112,0C77.3,0,79,1.213,79,3.478s-1.707,3.517-4.869,3.517H39.462" transform="translate(21 57)" fill="#2baae1"/>
  <path id="Fill_9" data-name="Fill 9" d="M24.956,6.99q-9.954,0-19.909,0c-.557,0-1.117.014-1.672-.028A3.486,3.486,0,0,1,0,3.555,3.494,3.494,0,0,1,3.288.054C4.564-.041,5.852.019,7.134.018q19.324,0,38.648,0c2.2,0,3.581.865,4.059,2.476.7,2.347-.956,4.449-3.637,4.476-4.907.049-9.815.016-14.723.018H24.956" transform="translate(21 86)" fill="#2baae1"/>
  <path id="Fill_11" data-name="Fill 11" d="M21.455,7c-5.6,0-11.192.01-16.788-.011a7.6,7.6,0,0,1-2.313-.271A3.2,3.2,0,0,1,0,3.5,3.208,3.208,0,0,1,2.34.281,6.718,6.718,0,0,1,4.485.011q17.04-.023,34.08-.006a7.776,7.776,0,0,1,1.5.117A3.439,3.439,0,0,1,43,3.572a3.433,3.433,0,0,1-2.921,3.295,9.774,9.774,0,0,1-1.835.126Q29.849,7.005,21.455,7" transform="translate(21 29)" fill="#2baae1"/>
  <path id="Fill_13" data-name="Fill 13" d="M15.866,21.127c-4.446,0-8.7.009-12.948,0A2.687,2.687,0,0,1,.064,19.064a2.61,2.61,0,0,1,2.8-3.2c3.839-.029,7.68-.009,11.52-.01h1.481V14.385c0-3.759-.008-7.518,0-11.277C15.877,1.136,16.816.023,18.445,0c1.673-.024,2.684,1.144,2.687,3.14.007,4.17,0,8.34,0,12.717h1.358c3.923,0,7.846-.014,11.768.015A2.6,2.6,0,0,1,36.97,18.1a2.566,2.566,0,0,1-1.6,2.784,4.638,4.638,0,0,1-1.57.237c-3.716.019-7.432.01-11.149.01H21.135c0,.507,0,.943,0,1.38,0,3.883.013,7.766-.008,11.649a2.68,2.68,0,0,1-2.146,2.795,2.553,2.553,0,0,1-2.842-1.488,4.714,4.714,0,0,1-.26-1.689c-.022-3.718-.011-7.436-.011-11.153V21.127" transform="translate(95 95)" fill="#2baae1"/>
</svg>
