<svg id="Group_16" data-name="Group 16" xmlns="http://www.w3.org/2000/svg" xmlns:xlink="http://www.w3.org/1999/xlink" width="133" height="171" viewBox="0 0 133 171">
  <defs>
    <clipPath id="clip-path">
      <path id="Clip_2" data-name="Clip 2" d="M0,0H133V171H0Z" fill="none"/>
    </clipPath>
  </defs>
  <g id="Group_3" data-name="Group 3">
    <path id="Clip_2-2" data-name="Clip 2" d="M0,0H133V171H0Z" fill="none"/>
    <g id="Group_3-2" data-name="Group 3" clip-path="url(#clip-path)">
      <path id="Fill_1" data-name="Fill 1" d="M16.4,171h-.011a17.369,17.369,0,0,1-9.841-2.7A13.427,13.427,0,0,1,0,156.338c.017-12.064.015-24.334.012-36.2v-1.361l0-33.852V75.858c0-11.943,0-24.292,0-36.477,0-9.712,6.78-16.517,16.483-16.549,1.4,0,2.938-.007,4.69-.007l3,0h5.352c.4,0,.8-.022,1.212-.045h.023l.238-.012h.016l.4-.02,1.6-.07V19.126c0-1.346,0-2.616,0-3.908.006-2.116.479-2.616,2.531-2.676,1.682-.049,3.5-.073,5.548-.073,1.814,0,3.667.019,5.4.039h.065a3.4,3.4,0,0,0,3.38-2.209A16.664,16.664,0,0,1,62.668.271a3.543,3.543,0,0,0,.8-.271h5.214c.307.071.619.14.921.206l.056.012c.764.169,1.486.329,2.192.533a15.7,15.7,0,0,1,10.741,9.391,3.438,3.438,0,0,0,3.439,2.37h.124c1.393-.029,2.9-.043,4.612-.043,1.743,0,3.484.014,5.168.029h.17a10.114,10.114,0,0,1,2.292.21c1.245.312,1.552.713,1.569,2.044.019,1.464.014,2.924.01,4.335v.51q0,.761,0,1.546v1.686h1.678c1.27,0,2.546,0,3.779-.01l.5,0h.113c1.393-.005,2.709-.01,4.035-.01,2.375,0,4.31.017,6.091.055a22.611,22.611,0,0,1,5.451.667,15.614,15.614,0,0,1,11.358,14.864c.029,39.909.029,79.715,0,118.313a14.353,14.353,0,0,1-12.461,13.956,25.443,25.443,0,0,1-3.951.316c-17.881.01-36.054.012-53.629.013C48.138,170.992,32.258,170.994,16.4,171ZM20.737,27.765c-1.533,0-2.91,0-4.211.01C9.447,27.812,4.873,32.453,4.872,39.6q0,12.626,0,25.25v13.6l0,31.686c0,13.382.007,30.036-.018,45.9-.008,5.174,2.7,7.459,4.982,8.465a17.5,17.5,0,0,0,6.847,1.519c21.769.054,43.707.061,62.3.061H97.961l18.373,0h.548c.282,0,.512,0,.722-.016,6.787-.343,10.525-4.274,10.525-11.07V63.239q0-3.573,0-7.148c0-5.62.007-11.432-.01-17.2-.018-5.942-4.2-10.647-9.735-10.945-1.994-.108-4.154-.158-6.8-.158-1.617,0-3.227.018-4.785.036H106.8c-1.557.018-3.166.036-4.757.036a1.918,1.918,0,0,0-1.3.549l-.014.013c-.025.023-.054.049-.092.078l-.661.506v3.5c0,1.973,0,4.014,0,6.054-.005,2.816-.9,3.72-3.693,3.721-9.875,0-19.911,0-29.827,0s-19.951,0-29.825,0c-2.75,0-3.59-.836-3.6-3.577,0-2.178,0-4.375,0-6.264V28.329l-1.281-.314c-.133-.032-.234-.061-.326-.087a2.841,2.841,0,0,0-.818-.139l-3.413-.011C25.009,27.771,22.873,27.765,20.737,27.765ZM45.356,17.4c-1.332,0-2.752,0-4.179.005-.409,0-.787.033-1.121.062l-.054,0c-.107.009-.209.018-.308.025l-1.566.105V37.323H94.9V17.4H82.965c-2.722,0-3.289-.438-4.042-3.119a13.678,13.678,0,0,0-4.794-7.177,12.832,12.832,0,0,0-7.918-2.726,13.035,13.035,0,0,0-1.515.089,13.765,13.765,0,0,0-11.3,10.1C52.74,16.9,52.076,17.4,49.655,17.4h-4.3Z" transform="translate(0 0)"/>
    </g>
  </g>
  <path id="Fill_4" data-name="Fill 4" d="M2.264,4.7a13.483,13.483,0,0,0,1.456.048h.21q8.722,0,17.444,0H30.96q8.709,0,17.418-.005a12.47,12.47,0,0,0,1.916-.1,2.221,2.221,0,0,0,1.95-2.077A2.184,2.184,0,0,0,50.665.221a7.744,7.744,0,0,0-2.02-.2Q29.275,0,9.905.011H4.2c-.192,0-.385,0-.577-.006A12.618,12.618,0,0,0,2.324.028,2.362,2.362,0,0,0,0,2.295,2.269,2.269,0,0,0,2.264,4.7" transform="translate(60.167 68.083)"/>
  <path id="Fill_6" data-name="Fill 6" d="M50.594.213a7.673,7.673,0,0,0-1.88-.186Q40.006.008,31.3.017h-7.3q-6.737,0-13.473,0c-.791,0-1.572,0-2.359-.009C7.413,0,6.654,0,5.892,0,4.747,0,3.6.01,2.463.046A2.3,2.3,0,0,0,0,2.248C-.055,3.626.809,4.521,2.374,4.7a10.374,10.374,0,0,0,1.147.045q22.561,0,45.127,0a9.248,9.248,0,0,0,1.693-.126A2.226,2.226,0,0,0,52.247,2.5,2.167,2.167,0,0,0,50.594.213" transform="translate(60.167 134.583)"/>
  <path id="Fill_8" data-name="Fill 8" d="M49.308.017Q41.127-.005,32.945.007l-6.781,0H19.238q-2.4,0-4.8,0C10.583,0,6.6-.006,2.693.024A2.916,2.916,0,0,0,.582.755,2.315,2.315,0,0,0,0,2.5C.079,4.346,1.72,4.735,3.083,4.736q17.707.008,35.413,0h8.861c.249,0,.5,0,.75.006.638.008,1.242.014,1.825-.027a2.514,2.514,0,0,0,1.8-.894,2.335,2.335,0,0,0,.479-1.884C51.955.356,50.49.02,49.308.017" transform="translate(60.167 101.333)"/>
  <path id="Fill_10" data-name="Fill 10" d="M29.139.712C27.66-.615,26.231.16,25.292,1.044c-3.063,2.884-6.133,5.808-9.1,8.636q-1.807,1.721-3.583,3.411l-1.16,1.1-1.179-1.083c-.629-.578-1.246-1.142-1.854-1.7-1.378-1.26-2.68-2.45-3.983-3.678a3.563,3.563,0,0,0-2.22-1.043A2.1,2.1,0,0,0,.75,7.306,2.357,2.357,0,0,0,0,8.974a2.915,2.915,0,0,0,.846,2.091C3.54,13.9,6.4,16.829,9.356,19.758a2.157,2.157,0,0,0,3.217.193C18.334,14.616,24,9.253,29.424,4.01a1.956,1.956,0,0,0,.659-1.471A2.576,2.576,0,0,0,29.139.712" transform="translate(20.583 91.833)"/>
  <path id="Fill_12" data-name="Fill 12" d="M9.292,19.67c1.142,1.136,2.26,1.212,3.325.227C18.71,14.26,24.187,9.1,29.359,4.112a2.118,2.118,0,0,0,.721-1.663A2.647,2.647,0,0,0,28.946.569c-.425-.322-1.721-1.3-3.551.419C22.294,3.9,19.184,6.846,16.176,9.7l-4.755,4.5-1.178-1.082c-.614-.563-1.214-1.11-1.8-1.645C7.111,10.263,5.858,9.123,4.618,7.933A3.808,3.808,0,0,0,2.138,6.762a1.982,1.982,0,0,0-1.42.58C-.336,8.365-.22,9.968,1,11.239c2.58,2.689,5.292,5.446,8.291,8.431" transform="translate(20.583 58.583)"/>
  <path id="Fill_14" data-name="Fill 14" d="M28.628.353c-.832-.459-1.809-.689-3.311.726-3.068,2.887-6.129,5.782-9.145,8.635L11.4,14.222l-1.179-1.09q-.918-.849-1.8-1.661c-1.35-1.24-2.624-2.412-3.9-3.622A3.625,3.625,0,0,0,2.158,6.755a2.018,2.018,0,0,0-1.427.576c-1.058,1-.957,2.64.24,3.887,2.648,2.76,5.481,5.633,8.419,8.541a2.129,2.129,0,0,0,3.2.161c6.284-5.8,11.765-10.962,16.754-15.772a2.155,2.155,0,0,0,.72-1.875A2.655,2.655,0,0,0,28.628.353" transform="translate(20.583 125.083)"/>
</svg>
