<svg id="Group_3" data-name="Group 3" xmlns="http://www.w3.org/2000/svg" xmlns:xlink="http://www.w3.org/1999/xlink" width="70.429" height="61" viewBox="0 0 70.429 61">
  <defs>
    <clipPath id="clip-path">
      <path id="Clip_2" data-name="Clip 2" d="M0,0H70.429V61H0Z" fill="none"/>
    </clipPath>
  </defs>
  <path id="Clip_2-2" data-name="Clip 2" d="M0,0H70.429V61H0Z" fill="none"/>
  <g id="Group_3-2" data-name="Group 3" clip-path="url(#clip-path)">
    <path id="Fill_1" data-name="Fill 1" d="M21.664,61a.677.677,0,0,1-.132-.012A2.664,2.664,0,0,1,20.246,59.7a2.14,2.14,0,0,1-.105-1.026c.006-.135.012-.267.012-.4l-.005-3.812c-.013-5.905-.019-11.23.031-16.588a2.189,2.189,0,0,0-1.66-2.392c-3.185-1.206-6.413-2.46-9.534-3.672l-.3-.118c-2.05-.8-4.484-1.745-6.989-2.706C.6,28.561,0,28.147,0,27.164s.622-1.42,1.7-1.832l11.8-4.521C32.78,13.419,50.159,6.762,67.54.152A2.636,2.636,0,0,1,68.477,0a3.143,3.143,0,0,1,1.4.309c.625.33.7.92.3,2.252-2.849,9.355-5.978,19.647-9.848,32.39l-2.489,8.191-.053.176-.05.165q-2.078,6.839-4.156,13.676c-.322,1.062-.748,1.688-1.266,1.86a1.076,1.076,0,0,1-.338.052,3.232,3.232,0,0,1-1.761-.781C47,55.9,43.73,53.462,40.572,51.108l-1.546-1.152-3.137-2.336-2.647-1.971c-.285-.213-.58-.425-.935-.679l-.563-.4a.407.407,0,0,0-.243-.079.424.424,0,0,0-.1.012.416.416,0,0,0-.273.219L29.5,47.949c-1.73,3.447-3.463,6.894-5.139,10.228l-.553,1.1c-.061.12-.118.257-.172.389l-.008.019a1.566,1.566,0,0,1-.346.618l-.021.013A3.888,3.888,0,0,1,21.664,61ZM63.713,9.428a.419.419,0,0,0-.3.131L33.61,41.134a.422.422,0,0,0,.052.626L50.388,54.22a.419.419,0,0,0,.25.085.491.491,0,0,0,.131-.021.417.417,0,0,0,.27-.277L64.368,10.112a.424.424,0,0,0-.2-.491l-.256-.139A.412.412,0,0,0,63.713,9.428ZM51.557,16.16a.407.407,0,0,0-.085.009c-.11.022-.2.037-.267.047a.771.771,0,0,0-.36.122l-3.04,2.17-.01.007c-7.634,5.45-15.528,11.085-23.312,16.7a2.681,2.681,0,0,0-.909,1.945c-.052,3.145-.043,6.319-.034,9.388l.005,2.217a7.209,7.209,0,0,0,.052.759c.011.1.023.208.032.32a.421.421,0,0,0,.377.382l.267.026h.04a.424.424,0,0,0,.374-.233c.317-.629.654-1.307,1.06-2.135.779-1.581,1.661-3.373,2.587-5.045a19.1,19.1,0,0,1,2.628-3.754c3.961-4.266,8.082-8.621,11.717-12.464l1.306-1.381L44,25.233q1.654-1.749,3.3-3.5c.828-.877,1.635-1.741,2.49-2.656l.6-.639,1.469-1.572a.421.421,0,0,0-.3-.709ZM53.1,9.278a.413.413,0,0,0-.148.028L7.367,26.785a.42.42,0,0,0,0,.784c.76.3,1.516.587,2.247.868l.02.008,1.276.492c3.476,1.337,6.37,2.453,9.316,3.637a2.873,2.873,0,0,0,1.071.233,2.673,2.673,0,0,0,1.58-.6C28.526,28.133,34.312,24,39.417,20.354l2.7-1.929,2.7-1.929c2.005-1.433,4.034-2.887,6-4.293l2.663-1.91a.42.42,0,0,0,.127-.537l-.131-.25A.416.416,0,0,0,53.1,9.278Z" transform="translate(-0.001 0)" fill="#2da9e0"/>
  </g>
</svg>
