<svg id="Group_8" data-name="Group 8" xmlns="http://www.w3.org/2000/svg" xmlns:xlink="http://www.w3.org/1999/xlink" width="97" height="97" viewBox="0 0 97 97">
  <defs>
    <clipPath id="clip-path">
      <path id="Clip_2" data-name="Clip 2" d="M0,0H79V97H0Z" fill="none"/>
    </clipPath>
    <clipPath id="clip-path-2">
      <path id="Clip_7" data-name="Clip 7" d="M0,97H97V0H0Z" fill="none"/>
    </clipPath>
  </defs>
  <g id="Group_3" data-name="Group 3">
    <path id="Clip_2-2" data-name="Clip 2" d="M0,0H79V97H0Z" fill="none"/>
    <g id="Group_3-2" data-name="Group 3" clip-path="url(#clip-path)">
      <path id="Fill_1" data-name="Fill 1" d="M63.541,97H45.089c-12.1,0-24.6,0-36.9,0-1.857,0-2.549-.7-2.552-2.584-.006-2.852-.005-5.746,0-8.546q0-1.759,0-3.517V81.007H5.47c-.312,0-.611,0-.9,0-.323,0-.627,0-.931,0-.43,0-.784,0-1.113-.016C.9,80.948.01,80.151.02,78.756s.934-2.189,2.534-2.212c.524-.008,1.057-.01,1.572-.012h.008c.377,0,.766,0,1.15-.007a.46.46,0,0,0,.145-.038c.037-.014.078-.029.129-.044V65.875h-.23l-.719,0H4.59l-.927,0c-.449,0-.819,0-1.165-.009A2.217,2.217,0,0,1,.021,63.7a2.131,2.131,0,0,1,.534-1.568,2.672,2.672,0,0,1,1.921-.728c.342-.01.708-.015,1.152-.015.309,0,.613,0,.935,0h.01c.323,0,.656,0,.994,0V50.713h-.2l-.768,0c-.324,0-.648,0-.973,0-.452,0-.825,0-1.176-.01C.915,50.678.031,49.879.02,48.517a2.147,2.147,0,0,1,2.4-2.219c.34-.007.7-.011,1.145-.011.312,0,.627,0,.947,0h.01c.336,0,.677,0,1.026,0V35.825H3.8c-.416,0-.759,0-1.078,0A2.957,2.957,0,0,1,.561,35.1,2.073,2.073,0,0,1,.02,33.554c.024-1.4.971-2.183,2.666-2.2q.62-.008,1.24-.012c.451,0,.918-.007,1.379-.013a.368.368,0,0,0,.139-.046c.034-.016.073-.034.121-.052V20.678H5.437c-.293,0-.591,0-.879.005-.339,0-.684.006-1.026.006-.49,0-.895-.007-1.274-.021A2.321,2.321,0,0,1,.31,19.61a2.265,2.265,0,0,1-.068-2.165A2.07,2.07,0,0,1,2.278,16.25c.367,0,.76,0,1.237,0l1.016,0H4.54l1.09,0V14.936q0-1.8,0-3.608v-.007c0-2.84,0-5.777,0-8.666C5.635.7,6.315.009,8.23.009L21.421,0h.1C27.678,0,34.04,0,40.3,0,49.2,0,56.569,0,63.476.015a15.329,15.329,0,0,1,11,4.55A15.915,15.915,0,0,1,78.974,15.76c.026,6.7.02,13.511.014,20.1v.026c0,2.843-.005,5.782-.005,8.673,0,3.581,0,7.22.009,10.739.01,8.448.021,17.183-.028,25.774-.039,6.851-3.2,11.782-9.387,14.656A14.216,14.216,0,0,1,63.541,97Zm-53.4-16.235h0V92.528c10.209,0,48.7.173,50.337.181h.009c.588-.048,1.177-.075,1.746-.1a21.441,21.441,0,0,0,3.61-.37,10.665,10.665,0,0,0,6.325-3.909,11.993,11.993,0,0,0,2.3-7.353c.009-22.3,0-44.277,0-64.872a13.047,13.047,0,0,0-.137-2.273,11.161,11.161,0,0,0-4-6.863,11.98,11.98,0,0,0-7.622-2.6,14,14,0,0,0-2.214.179c-.391,0-40.1-.029-50.352-.029V16h.134c.29,0,.577,0,.855-.005h.006c.327,0,.633-.006.943-.006.448,0,.817.006,1.161.019,1.6.059,2.485.9,2.44,2.3-.045,1.363-.926,2.128-2.48,2.152-.341.005-.7.008-1.142.008l-.928,0h-.014l-.962,0V31.135h.23l.8,0,.969,0c.478,0,.87,0,1.236.011a2.094,2.094,0,0,1,2.1,1.283,2.264,2.264,0,0,1-.09,2.1,2.354,2.354,0,0,1-1.91,1.058c-.376.024-.779.036-1.268.036-.342,0-.692-.006-1.03-.011s-.7-.011-1.043-.011v10.7h.189c.281,0,.557,0,.83,0,.326,0,.648,0,.968,0,.47,0,.857,0,1.217.013a2.106,2.106,0,0,1,2.333,2.166,2.133,2.133,0,0,1-2.367,2.243c-.354.008-.732.012-1.19.012-.325,0-.647,0-.971,0s-.657,0-.986,0V61.4h.243l.773,0,.944,0c.454,0,.828,0,1.177.009a2.16,2.16,0,0,1,2.154,1.205,2.258,2.258,0,0,1-.051,2.159,2.326,2.326,0,0,1-1.939,1.088c-.376.018-.777.027-1.262.027-.344,0-.694,0-1.032-.008h-.005c-.337,0-.686-.008-1.029-.008V76.2c.047.019.085.038.118.054a.354.354,0,0,0,.14.049c.475.006.957.01,1.424.013.437,0,.87.006,1.3.011,1.624.02,2.532.794,2.556,2.181S14.8,80.724,13.2,80.761c-.346.008-.716.011-1.164.011-.307,0-.615,0-.926,0h-.007C10.789,80.767,10.469,80.765,10.146,80.765Z" transform="translate(0 0)" fill="#88d3f4"/>
    </g>
  </g>
  <path id="Fill_4" data-name="Fill 4" d="M7.9,56c-3.558,0-6.795-3.184-7.7-7.571a11.24,11.24,0,0,1-.2-2.3c0-3.739,0-7.587,0-10.858V31.489q0-1.948,0-3.9c0-3.741,0-7.4-.009-11.044a3.843,3.843,0,0,1,.387-1.736c2.024-4.28,4.106-8.719,6.366-13.57C7.262.151,7.755,0,8.213,0h.041c.441.011.955.122,1.473,1.315,1.748,4.017,3.543,8.084,5.28,12.017l.059.134.6,1.361A3.867,3.867,0,0,1,16,16.455c-.007,5.455-.006,10.962-.005,15.7,0,4.58,0,9.315,0,13.973,0,5.167-2.975,9.2-7.223,9.815A6.182,6.182,0,0,1,7.9,56ZM5.2,43.262c-1.285,0-2.141,1.028-2.182,2.62a7.115,7.115,0,0,0,1.447,4.66A4.516,4.516,0,0,0,8,52.331h.006a4.519,4.519,0,0,0,3.54-1.8,7.117,7.117,0,0,0,1.441-4.666c-.043-1.583-.9-2.605-2.184-2.605-.033,0-.067,0-.1,0-.331.01-.675.015-1.083.015-.252,0-.5,0-.755,0s-.525,0-.784,0c-.274,0-.549,0-.823,0s-.536,0-.8,0c-.445,0-.812-.005-1.156-.016C5.261,43.262,5.228,43.262,5.2,43.262ZM8.076,39.62c.88,0,1.661.012,2.39.037h.008l.119,0a2.151,2.151,0,0,0,1.748-.784,3.43,3.43,0,0,0,.65-2.219c-.018-4.275-.018-8.628-.018-12.838v-.573q0-2.762,0-5.524c0-.036,0-.074,0-.112a4.039,4.039,0,0,0-.271-1.7c-.748-1.741-1.5-3.448-2.3-5.254l-.037-.083q-.35-.792-.7-1.6L8.185,5.6,6.626,8.915l-.795,1.693c-.723,1.54-1.542,3.285-2.343,4.978a4.677,4.677,0,0,0-.469,2.043c.007,6.071.012,12.6,0,19.229a3.166,3.166,0,0,0,.624,2.04,2.045,2.045,0,0,0,1.654.752h.061C6.035,39.637,7.057,39.62,8.076,39.62Z" transform="translate(81 38)" fill="#88d3f4"/>
  <path id="Clip_7-2" data-name="Clip 7" d="M0,97H97V0H0Z" fill="none"/>
  <g id="Mask_Group_5" data-name="Mask Group 5" clip-path="url(#clip-path-2)">
    <path id="Fill_6" data-name="Fill 6" d="M27.244,20H1.756A1.766,1.766,0,0,1,0,18.229V1.771A1.766,1.766,0,0,1,1.756,0H27.244A1.766,1.766,0,0,1,29,1.771V18.229A1.766,1.766,0,0,1,27.244,20ZM3.512,3.543V16.457H25.488V3.543Z" transform="translate(30 19)" fill="#88d3f4"/>
  </g>
</svg>
