<svg id="Group_6" data-name="Group 6" xmlns="http://www.w3.org/2000/svg" xmlns:xlink="http://www.w3.org/1999/xlink" width="63.417" height="63" viewBox="0 0 63.417 63">
  <defs>
    <clipPath id="clip-path">
      <path id="Clip_2" data-name="Clip 2" d="M0,0H63.417V63H0Z" fill="none"/>
    </clipPath>
  </defs>
  <g id="Group_3" data-name="Group 3">
    <path id="Clip_2-2" data-name="Clip 2" d="M0,0H63.417V63H0Z" fill="none"/>
    <g id="Group_3-2" data-name="Group 3" clip-path="url(#clip-path)">
      <path id="Fill_1" data-name="Fill 1" d="M32.02,63H31.98A31.98,31.98,0,0,1,0,31.026,30.893,30.893,0,0,1,31.36,0h.018A31.941,31.941,0,0,1,54.044,9.36a31.569,31.569,0,0,1,9.374,22.554,30.873,30.873,0,0,1-9.1,22.118A31.426,31.426,0,0,1,32.02,63ZM31.715,2.633A28.982,28.982,0,0,0,2.657,31.387,28.524,28.524,0,0,0,4.918,42.631a29.071,29.071,0,0,0,26.723,17.72h.067A28.947,28.947,0,0,0,52.2,51.9a28.635,28.635,0,0,0,.053-40.793A28.931,28.931,0,0,0,31.715,2.633Z" transform="translate(0)" fill="#2da9e0"/>
    </g>
  </g>
  <path id="Fill_4" data-name="Fill 4" d="M28.19,37.977h-.041a19.9,19.9,0,0,1-8.771-2.617A38.466,38.466,0,0,1,.88,14.991C-.879,10.462,0,6.366,3.5,2.817l.282-.283c.486-.5.964-.983,1.476-1.441A4.13,4.13,0,0,1,7.984,0a3.868,3.868,0,0,1,2.661,1.1C12.663,3.014,14.7,5.037,16.7,7.11a3.693,3.693,0,0,1,.013,5.317c-1.045,1.125-2.155,2.2-3.2,3.2-.408.39-.427.618-.086,1.057a40.186,40.186,0,0,0,8.211,8.045,1.286,1.286,0,0,0,.707.321c.2,0,.39-.114.652-.394.795-.85,1.678-1.729,2.865-2.849a4.163,4.163,0,0,1,2.857-1.236,4.039,4.039,0,0,1,2.8,1.216c2.123,2.036,4.021,3.915,5.8,5.744a3.8,3.8,0,0,1-.056,5.7c-1.761,1.864-3.9,3.9-6.987,4.465-.517.093-1.033.155-1.487.211l-.074.009-.526.063ZM7.8,3.212a.538.538,0,0,0-.231.037C5.252,5.127,3.113,7.331,3.141,10.7c.008.163.013.311.015.452v.026a5.423,5.423,0,0,0,.068.9,9.426,9.426,0,0,0,.464,1.659A35.785,35.785,0,0,0,22.135,33.283a13.588,13.588,0,0,0,5.836,1.638c.115,0,.232,0,.346-.007,3.143-.119,5.268-2.081,6.933-3.985.142-.163.518-.6-.188-1.3-1.927-1.933-3.809-3.808-5.594-5.572a1.132,1.132,0,0,0-.773-.4,1.153,1.153,0,0,0-.791.422l-1.019,1.022c-.622.625-1.264,1.272-1.9,1.9a3.685,3.685,0,0,1-2.563,1.257,4,4,0,0,1-2.28-.853A41.353,41.353,0,0,1,11,18.535c-1.382-1.821-1.276-3.366.346-5.009.564-.573,1.143-1.147,1.641-1.641.437-.433.9-.9,1.369-1.367a.889.889,0,0,0,.013-1.462l-.977-.986c-1.434-1.449-3.06-3.092-4.724-4.623A1.609,1.609,0,0,0,7.8,3.212Z" transform="translate(12.404 12.521)" fill="#2da9e0"/>
</svg>
