<svg id="Group_8" data-name="Group 8" xmlns="http://www.w3.org/2000/svg" xmlns:xlink="http://www.w3.org/1999/xlink" width="64.646" height="65" viewBox="0 0 64.646 65">
  <defs>
    <clipPath id="clip-path">
      <path id="Clip_2" data-name="Clip 2" d="M0,0H64.646V65H0Z" fill="none"/>
    </clipPath>
  </defs>
  <g id="Group_3" data-name="Group 3">
    <path id="Clip_2-2" data-name="Clip 2" d="M0,0H64.646V65H0Z" fill="none"/>
    <g id="Group_3-2" data-name="Group 3" clip-path="url(#clip-path)">
      <path id="Fill_1" data-name="Fill 1" d="M32.324,65c-8.962,0-10.153-.038-13.755-.2A23.473,23.473,0,0,1,10.8,63.311a16.029,16.029,0,0,1-9.129-9.179A23.712,23.712,0,0,1,.2,46.334C.038,42.707,0,41.508,0,32.507c0-9.058.04-10.25.21-13.84a23.829,23.829,0,0,1,1.483-7.81A15.529,15.529,0,0,1,5.295,5.3a15.143,15.143,0,0,1,5.53-3.622A23.445,23.445,0,0,1,18.581.194C22.2.037,23.393,0,32.336,0c9.017,0,10.2.04,13.77.211A23.469,23.469,0,0,1,53.872,1.7,16.035,16.035,0,0,1,63,10.882a23.746,23.746,0,0,1,1.48,7.8c.154,3.565.168,4.728.168,13.828,0,9.035-.037,10.229-.2,13.827a23.894,23.894,0,0,1-1.478,7.8,16.066,16.066,0,0,1-9.138,9.183A23.349,23.349,0,0,1,46.078,64.8C42.477,64.963,41.285,65,32.324,65Zm.041-61.226c-8.8,0-9.981.038-13.583.2A19.522,19.522,0,0,0,12.211,5.2,11.406,11.406,0,0,0,7.963,7.964a11.409,11.409,0,0,0-2.793,4.293,19.662,19.662,0,0,0-1.231,6.62c-.159,3.59-.2,4.776-.2,13.655s.038,10.052.2,13.654a19.574,19.574,0,0,0,1.225,6.605,11.434,11.434,0,0,0,2.752,4.274,11.463,11.463,0,0,0,4.264,2.792,19.387,19.387,0,0,0,6.584,1.237c3.571.16,4.75.2,13.586.2,8.815,0,10-.038,13.58-.2a19.33,19.33,0,0,0,6.584-1.237,12.3,12.3,0,0,0,7.026-7.06,19.748,19.748,0,0,0,1.23-6.624c.163-3.678.2-4.766.2-13.641,0-8.846-.038-10.037-.2-13.655a19.636,19.636,0,0,0-1.221-6.6A11.516,11.516,0,0,0,56.8,8,11.468,11.468,0,0,0,52.532,5.21a19.364,19.364,0,0,0-6.585-1.238C42.354,3.812,41.171,3.775,32.364,3.775Z" transform="translate(-0.001)" fill="#2da9e0"/>
    </g>
  </g>
  <path id="Fill_4" data-name="Fill 4" d="M16.042,32.255A16.128,16.128,0,1,1,32.086,16.129,16.1,16.1,0,0,1,16.042,32.255Zm0-28.521A12.394,12.394,0,1,0,28.368,16.129,12.375,12.375,0,0,0,16.042,3.734Z" transform="translate(16.294 16.378)" fill="#2da9e0"/>
  <path id="Fill_6" data-name="Fill 6" d="M2.852,0A2.867,2.867,0,1,0,5.7,2.867,2.863,2.863,0,0,0,2.852,0" transform="translate(47.372 11.655)" fill="#2da9e0"/>
</svg>
