<svg id="Group_3" data-name="Group 3" xmlns="http://www.w3.org/2000/svg" xmlns:xlink="http://www.w3.org/1999/xlink" width="95" height="95" viewBox="0 0 95 95">
  <defs>
    <clipPath id="clip-path">
      <path id="Clip_2" data-name="Clip 2" d="M0,0H95V95H0Z" fill="none"/>
    </clipPath>
  </defs>
  <path id="Clip_2-2" data-name="Clip 2" d="M0,0H95V95H0Z" fill="none"/>
  <g id="Group_3-2" data-name="Group 3" clip-path="url(#clip-path)">
    <path id="Fill_1" data-name="Fill 1" d="M16.139,95H1.669l-.813-.813-.022-.022L0,93.33v-21.7a2.721,2.721,0,0,1,2.546-1.581h.037c1.834.018,3.635.02,5,.02l2.3,0h.268l2.377,0c1.019,0,1.866,0,2.667,0,1.76.006,2.584.846,2.592,2.643.005,1.256,0,2.53,0,3.761,0,.924,0,1.879,0,2.823,0,.224.015.451.03.67.007.1.013.2.019.295h9.37V49.809H17.787q0,1.167,0,2.314v.011c0,1.742,0,3.388,0,5.07,0,1.962-.8,2.764-2.749,2.767h-.7c-1.024,0-2.064,0-3.071-.006h-.036c-1.013,0-2.056-.006-3.084-.006-1.991,0-3.6.012-5.074.039H2.95A3.016,3.016,0,0,1,0,58.455V36.565a2.749,2.749,0,0,1,2.4-1.529h.022c1.905.014,3.786.015,5.211.015H11.7c1.441,0,2.62,0,3.712.007a2.216,2.216,0,0,1,2.374,2.388c.014.494.011,1,.008,1.481,0,.217,0,.434,0,.651v5.656h9.446V14.765H17.787V17.2c0,1.59,0,3.164,0,4.738,0,2.314-.715,3.019-3.057,3.02-.98,0-2.028,0-3.4-.006-1.055,0-2.146-.006-3.225-.006-2.018,0-3.655.01-5.153.033H2.86A2.851,2.851,0,0,1,0,23.395V1.69A2.694,2.694,0,0,1,2.8,0h.079C4.4.02,6,.029,8.068.029q1.492,0,2.983,0,1.355,0,2.711,0h1.453A2.3,2.3,0,0,1,17.784,2.6c.009,1.2.007,2.417,0,3.6q0,.8,0,1.6v2.461H28.822c2.149,0,2.911.755,2.911,2.882q0,10.326,0,20.651V45.239h5.825V44.112q0-2.4,0-4.8v-.246c0-3.847,0-7.825,0-11.737,0-2.166.732-2.9,2.894-2.9l7.009,0,6.995,0c2.272,0,2.965.705,2.966,3.014q0,5.565,0,11.129,0,2.782,0,5.564v1.1h5.825V35.2c0-7.278,0-14.8,0-22.267a2.751,2.751,0,0,1,.643-2.022,2.715,2.715,0,0,1,2.01-.65c1.206,0,2.5,0,4.081,0h7.212V9.166q0-.979,0-1.957c0-1.547-.006-3.146.009-4.72A2.252,2.252,0,0,1,79.694.024c2.121-.005,4.274-.008,6.4-.008s4.279,0,6.4.008a2.235,2.235,0,0,1,2.483,2.462c.01,6.647.01,13.386,0,20.032a2.173,2.173,0,0,1-2.323,2.425c-2.138.015-4.355.023-6.589.023-2.1,0-4.282-.007-6.488-.021A2.21,2.21,0,0,1,77.2,22.469c-.013-1.577-.01-3.18-.008-4.73q0-.974,0-1.948v-1.02H67.753V45.229h9.331c.019-.032.036-.055.048-.073s.029-.042.029-.057q.006-1.268.009-2.535c0-1.662.01-3.379.029-5.067a2.232,2.232,0,0,1,2.414-2.442c2.209-.009,4.419-.014,6.57-.014s4.309,0,6.413.014a2.428,2.428,0,0,1,1.749.631,2.394,2.394,0,0,1,.628,1.738c.012,6.321.012,12.9,0,20.126a2.192,2.192,0,0,1-2.336,2.411c-2.156.011-4.38.017-6.608.017-2.106,0-4.282-.005-6.468-.015a2.21,2.21,0,0,1-2.362-2.4c-.019-1.6-.015-3.232-.011-4.808v-.015q0-.974,0-1.948v-1H67.756V80.248h9.438q0-1.123,0-2.231v-.006c0-1.8,0-3.5,0-5.232,0-1.9.815-2.71,2.71-2.714,1.98,0,4.055-.007,6.167-.007,1.963,0,4.038,0,6.167.006a2.826,2.826,0,0,1,2.106.646,2.877,2.877,0,0,1,.634,2.12q0,2.715,0,5.429c0,4.545-.008,9.242.022,13.862A2.745,2.745,0,0,1,93.311,95H78.842a2.84,2.84,0,0,1-1.666-3c.048-1.475.037-2.975.027-4.426,0-.615-.009-1.251-.009-1.879v-.932H66.208a3.157,3.157,0,0,1-2.313-.639,3.063,3.063,0,0,1-.647-2.285q0-10.324,0-20.649v-11.4H57.423v1.154q0,2.58,0,5.16c0,3.809,0,7.747,0,11.624,0,2.111-.744,2.86-2.838,2.862-2.207,0-4.514,0-7.053,0l-7.042,0c-2.217,0-2.93-.72-2.93-2.956q0-3.87,0-7.741v-.058q0-4.493,0-8.985c0-.244-.014-.491-.027-.73-.006-.111-.012-.218-.017-.325H31.733V61.283q0,10.324,0,20.648c0,2.064-.777,2.831-2.867,2.832H17.787c0,.749,0,1.5-.007,2.22v.006c-.009,1.758-.017,3.418.023,5.105A2.786,2.786,0,0,1,16.14,95ZM81.715,74.575V90.5h8.753V74.575Zm-77.2-.023V90.5h8.744V74.552ZM42.085,28.933V66.082H52.916V28.933ZM4.527,39.553v15.93H13.27V39.553Zm77.181.017v15.9h8.776V39.57Zm.013-35.044V20.469h8.741V4.526Zm-77.194,0v15.91h8.759V4.522Z"/>
  </g>
</svg>
