<svg id="Group_11" data-name="Group 11" xmlns="http://www.w3.org/2000/svg" xmlns:xlink="http://www.w3.org/1999/xlink" width="120" height="177" viewBox="0 0 120 177">
  <defs>
    <clipPath id="clip-path">
      <path id="Clip_2" data-name="Clip 2" d="M0,0H120V74H0Z" fill="none"/>
    </clipPath>
    <clipPath id="clip-path-2">
      <path id="Clip_5" data-name="Clip 5" d="M0,0H86V100H0Z" fill="none"/>
    </clipPath>
  </defs>
  <g id="Group_3" data-name="Group 3" transform="translate(0 103)">
    <path id="Clip_2-2" data-name="Clip 2" d="M0,0H120V74H0Z" fill="none"/>
    <g id="Group_3-2" data-name="Group 3" clip-path="url(#clip-path)">
      <path id="Fill_1" data-name="Fill 1" d="M11.152,56.823h97.7c.275-2.8.4-5.578.888-8.293a4.161,4.161,0,0,1,1.883-2.662,2.766,2.766,0,0,1,3.714,3.041c-.119,2.592-.463,5.175-.743,8,.875,0,1.628-.024,2.379,0,2.055.079,3.006,1.077,3.023,3.138a14.08,14.08,0,0,1-14.053,13.9c-8.629.087-17.26.025-25.89.025q-21.07,0-42.139,0c-2.18,0-3.241-.671-3.563-2.2A2.769,2.769,0,0,1,36.8,68.322a14.975,14.975,0,0,1,1.784-.032q33.479,0,66.958,0c4.124,0,7.058-1.973,8.272-5.578H6.6c.6,3.058,3.808,5.5,7.492,5.563,3.749.064,7.5.009,11.249.022,2.326.008,3.522.981,3.531,2.828S27.677,74,25.363,73.968c-4.635-.066-9.319.2-13.891-.388C5.253,72.786.7,67.461.059,61.166c-.321-3.177.621-4.228,3.822-4.258.411,0,.823,0,1.5,0-.172-1.947-.313-3.8-.5-5.649C3.511,37.821,2.1,24.389.776,10.948.228,5.378,4.825.369,10.623.028,11.276-.01,11.932,0,12.587,0Q59.993,0,107.4,0c8.086,0,12.417,4.79,11.614,12.8-.774,7.722-1.517,15.446-2.281,23.169a10.91,10.91,0,0,1-.256,1.578,2.827,2.827,0,0,1-3.152,2.253,2.872,2.872,0,0,1-2.456-3.178c.829-8.371,1.653-16.742,2.539-25.106.356-3.36-1.67-5.811-5.093-5.812q-48.3-.022-96.6,0c-3.37,0-5.412,2.233-5.093,5.653C7.4,19.67,8.25,27.979,9.08,36.29c.677,6.778,1.367,13.555,2.072,20.533" transform="translate(0)"/>
    </g>
  </g>
  <g id="Group_6" data-name="Group 6" transform="translate(17)">
    <path id="Clip_5-2" data-name="Clip 5" d="M0,0H86V100H0Z" fill="none"/>
    <g id="Group_6-2" data-name="Group 6" clip-path="url(#clip-path-2)">
      <path id="Fill_4" data-name="Fill 4" d="M83.222,100a3.385,3.385,0,0,1-2.373-1.239c-4.115-4.289-9.5-5.381-14.656-6.131-1.512-.219-3.042-.488-4.522-.748C60.043,91.6,58.36,91.3,56.7,91.07a2.463,2.463,0,0,0-.336-.022,3.355,3.355,0,0,0-1.881.586,19.034,19.034,0,0,1-22.643.025,3.455,3.455,0,0,0-1.928-.564,2.961,2.961,0,0,0-.45.033c-3.932.608-7.917,1.3-11.772,1.978l-2.64.461a16.8,16.8,0,0,0-5.038,1.721,18.568,18.568,0,0,0-4.275,3.178l-.145.145a3.423,3.423,0,0,1-1.394,1,7.263,7.263,0,0,1-1.68.261A2.275,2.275,0,0,1,.473,98.8c-1.046-1.592-.144-2.868.76-3.8,3.93-4.064,9.044-6.485,15.636-7.4,2.618-.364,5.19-.8,7.912-1.264,1.227-.209,2.493-.424,3.772-.633q0-1.12,0-2.239c0-2.63.009-5.347-.044-8.017-.006-.316-.455-.66-.816-.936l-.085-.065a26.944,26.944,0,0,1-7.851-9.339A25.884,25.884,0,0,1,17.2,53.226,16.927,16.927,0,0,0,15.291,44.9q-.278-.534-.561-1.07a40.246,40.246,0,0,1-3.553-8.162,14.437,14.437,0,0,1,.18-8.639,16.033,16.033,0,0,1,5.233-7.037,2.648,2.648,0,0,0,.914-1.812c-.031-2.78-.108-5.606-.181-8.339-.06-2.221-.122-4.518-.16-6.778A3.113,3.113,0,0,1,17.989.793,2.7,2.7,0,0,1,19.939,0a3.741,3.741,0,0,1,1.952.6c1.886,1.167,3.755,2.433,5.563,3.657l.833.563A25.336,25.336,0,0,0,34.772,8.01a22.081,22.081,0,0,0,6.7,1.039,26.922,26.922,0,0,0,9.736-1.955,4.948,4.948,0,0,1,1.757-.383A2.381,2.381,0,0,1,55.3,8.489a2.549,2.549,0,0,1,.012,2.08,3.45,3.45,0,0,1-2.269,1.549,41.313,41.313,0,0,1-11.523,1.77,31.182,31.182,0,0,1-9.017-1.3,32.1,32.1,0,0,1-8.655-4.156,1.11,1.11,0,0,0-.3-.125c-.054-.016-.109-.033-.164-.053a30.164,30.164,0,0,0,2.03,15.856,25.049,25.049,0,0,0,10.32,11.468,9.812,9.812,0,0,0,5.091,1.587A9.368,9.368,0,0,0,47.025,34.5a12.942,12.942,0,0,1,8.523-3.4,11.2,11.2,0,0,1,6.315,1.952,13.332,13.332,0,0,1,4.6,5.665,4.588,4.588,0,0,0,.224.419c.04.069.08.139.121.213,2.654-3.639,3.521-7.6,2.44-11.154a8.293,8.293,0,0,0-2.575-4.053,7.675,7.675,0,0,0-4.347-1.721c-2.592-.226-3.489-1.037-3.428-3.1.06-2.024.813-2.608,3.5-2.716a.786.786,0,0,0,.262-.091c.1-.043.23-.1.428-.181-.279-.424-.547-.854-.806-1.269A24.909,24.909,0,0,0,60.45,12.38c-1.274-1.551-1.324-3.1-.137-4.261a2.684,2.684,0,0,1,1.9-.8,3.342,3.342,0,0,1,2.254.973c2.267,2.088,3.571,4.9,4.1,8.85a2.935,2.935,0,0,0,.948,1.874,13.063,13.063,0,0,1,3.855,4.132A13.741,13.741,0,0,1,75.06,28a18.521,18.521,0,0,1-1.069,9.28c-.007.018-.014.037-.02.055a.8.8,0,0,1-.045.111,56.21,56.21,0,0,0-4.1,9.563A37.017,37.017,0,0,0,68.082,57.4a18.572,18.572,0,0,1-2.816,9.375,27.879,27.879,0,0,1-6.834,7.383A2.9,2.9,0,0,0,57.116,76.8c.059,2.059.048,4.086.036,6.232,0,.855-.009,1.735-.009,2.618l6.082.881.02,0,.094.014L70.6,87.6a25.362,25.362,0,0,1,7.638,2.332,23.99,23.99,0,0,1,6.449,4.7c1.616,1.643,1.741,3.114.383,4.5A2.568,2.568,0,0,1,83.222,100ZM34.29,77.752c0,.744,0,1.479-.007,2.19v.007c-.01,2.015-.02,3.919.053,5.828a2.423,2.423,0,0,0,.969,1.513,12.933,12.933,0,0,0,15.117-.009,2.414,2.414,0,0,0,.96-1.518c.073-1.905.063-3.811.053-5.828,0-.723-.008-1.47-.008-2.236a27.223,27.223,0,0,1-8.521,1.376A29.75,29.75,0,0,1,34.29,77.752Zm-6.782-40.8c-.357.612-.751,1.236-1.132,1.839A27.892,27.892,0,0,0,23.993,43.1c-1.87,4.606-1.4,9.47-.765,14.057a18.841,18.841,0,0,0,6.637,11.823,20.189,20.189,0,0,0,25.952-.009,19.481,19.481,0,0,0,6.731-11.81c.824-5.168.273-10.509-1.733-16.808a5.12,5.12,0,0,0-3.52-3.28,6.168,6.168,0,0,0-1.982-.344,6.971,6.971,0,0,0-4.7,2.117,14.059,14.059,0,0,1-9.478,3.945,15.147,15.147,0,0,1-6.847-1.763c-1.448-.734-2.8-1.587-4.365-2.574C29.158,37.973,28.369,37.475,27.508,36.953Zm-8.44-11.664a8.173,8.173,0,0,0-2.9,6.122,15.092,15.092,0,0,0,2.658,7.983c1.549-2.159,3.11-4.336,4.64-6.471L21.3,29.164l-.057-.1Z" transform="translate(0 0)"/>
    </g>
  </g>
  <path id="Fill_7" data-name="Fill 7" d="M7,20a2.869,2.869,0,0,1-2.4,2.976,2.654,2.654,0,0,1-2.958-2.494C1.162,16.212.786,11.93.378,7.652.236,6.167.074,4.681,0,3.191A2.81,2.81,0,0,1,2.517.013a2.668,2.668,0,0,1,2.8,2.512c.3,2,.407,4.036.6,6.056L7,20" transform="translate(12 114)"/>
  <path id="Fill_9" data-name="Fill 9" d="M0,3.461C-.054,1.422.9.232,2.494.022A2.682,2.682,0,0,1,5.44,2.488c.265,1.8.447,3.623.553,5.443a2.757,2.757,0,0,1-2.387,3.044,2.711,2.711,0,0,1-3-2.414C.295,6.769.17,4.943,0,3.461" transform="translate(14 143)"/>
</svg>
