<svg id="Group_11_Copy" data-name="Group 11 Copy" xmlns="http://www.w3.org/2000/svg" xmlns:xlink="http://www.w3.org/1999/xlink" width="72" height="106" viewBox="0 0 72 106">
  <defs>
    <clipPath id="clip-path">
      <path id="Clip_2" data-name="Clip 2" d="M0,0H72V44H0Z" fill="none"/>
    </clipPath>
    <clipPath id="clip-path-2">
      <path id="Clip_5" data-name="Clip 5" d="M0,0H52V60H0Z" fill="none"/>
    </clipPath>
  </defs>
  <g id="Group_3" data-name="Group 3" transform="translate(0 62)">
    <path id="Clip_2-2" data-name="Clip 2" d="M0,0H72V44H0Z" fill="none"/>
    <g id="Group_3-2" data-name="Group 3" clip-path="url(#clip-path)">
      <path id="Fill_1" data-name="Fill 1" d="M6.691,33.787H65.314c.165-1.665.243-3.317.533-4.931a2.475,2.475,0,0,1,1.13-1.583,2.014,2.014,0,0,1,1.714.326,1.961,1.961,0,0,1,.514,1.483c-.071,1.541-.278,3.077-.446,4.757.525,0,.977-.014,1.428,0A1.647,1.647,0,0,1,72,35.707a8.411,8.411,0,0,1-8.432,8.265c-5.178.052-10.356.015-15.534.015q-12.642,0-25.284,0c-1.308,0-1.944-.4-2.138-1.309a1.648,1.648,0,0,1,1.468-2.053,9.067,9.067,0,0,1,1.07-.019q20.087,0,40.175,0a4.829,4.829,0,0,0,4.963-3.317H3.958a4.566,4.566,0,0,0,4.5,3.308c2.249.038,4.5.005,6.749.013,1.4,0,2.113.583,2.118,1.682s-.715,1.713-2.1,1.694a75.01,75.01,0,0,1-8.334-.231A8.1,8.1,0,0,1,.036,36.369c-.193-1.889.372-2.514,2.293-2.532.247,0,.494,0,.9,0-.1-1.157-.188-2.26-.3-3.359C2.107,22.488,1.259,14.5.466,6.51A6.152,6.152,0,0,1,6.374.016C6.766-.006,7.159,0,7.552,0H64.44c4.852,0,7.45,2.848,6.968,7.609-.465,4.591-.91,9.184-1.369,13.776a6.433,6.433,0,0,1-.153.938,1.707,1.707,0,0,1-3.365-.55c.5-4.977.992-9.955,1.524-14.928A2.915,2.915,0,0,0,64.989,3.39q-28.98-.013-57.959,0A2.852,2.852,0,0,0,3.974,6.751c.465,4.945.976,9.886,1.474,14.827.406,4.03.82,8.06,1.243,12.209" transform="translate(0)" fill="#88d3f4"/>
    </g>
  </g>
  <g id="Group_6" data-name="Group 6" transform="translate(10)">
    <path id="Clip_5-2" data-name="Clip 5" d="M0,0H52V60H0Z" fill="none"/>
    <g id="Group_6-2" data-name="Group 6" clip-path="url(#clip-path-2)">
      <path id="Fill_4" data-name="Fill 4" d="M50.32,60a2.052,2.052,0,0,1-1.434-.743c-2.489-2.573-5.742-3.228-8.861-3.678-.915-.132-1.841-.293-2.737-.449-.985-.171-2-.349-3.006-.487a1.5,1.5,0,0,0-.205-.013,2.037,2.037,0,0,0-1.136.351A11.591,11.591,0,0,1,19.249,55a2.1,2.1,0,0,0-1.165-.338,1.806,1.806,0,0,0-.272.02c-2.361.362-4.755.777-7.069,1.179h-.008L9.1,56.14a10.506,10.506,0,0,0-5.63,2.939l-.091.089a2.056,2.056,0,0,1-.84.6,4.48,4.48,0,0,1-1.016.157,1.379,1.379,0,0,1-1.234-.644A1.694,1.694,0,0,1,.745,57,15.6,15.6,0,0,1,10.2,52.56c1.59-.219,3.152-.483,4.806-.762.733-.124,1.491-.252,2.259-.377V50.1c0-1.583.005-3.22-.027-4.828,0-.19-.276-.4-.5-.563l-.049-.037A15.139,15.139,0,0,1,10.4,31.936a10.09,10.09,0,0,0-1.154-5q-.163-.31-.328-.622L8.91,26.3a24.077,24.077,0,0,1-2.152-4.9,8.6,8.6,0,0,1,.109-5.183,9.623,9.623,0,0,1,3.165-4.222,1.587,1.587,0,0,0,.553-1.087c-.019-1.666-.065-3.36-.11-5-.036-1.337-.074-2.715-.1-4.071A1.837,1.837,0,0,1,10.872.48,1.641,1.641,0,0,1,12.056,0a2.274,2.274,0,0,1,1.18.358c1.16.712,2.309,1.485,3.419,2.232l.448.3a14.147,14.147,0,0,0,7.971,2.538,16.392,16.392,0,0,0,5.887-1.173,3.014,3.014,0,0,1,1.063-.229,1.438,1.438,0,0,1,1.41,1.066,1.521,1.521,0,0,1,.009,1.245,2.082,2.082,0,0,1-1.374.933A25.165,25.165,0,0,1,25.1,8.333a18.99,18.99,0,0,1-5.453-.782,19.475,19.475,0,0,1-5.234-2.494.681.681,0,0,0-.184-.075c-.033-.01-.066-.02-.1-.032a17.97,17.97,0,0,0,1.227,9.513,15.071,15.071,0,0,0,6.24,6.881,5.963,5.963,0,0,0,3.077.952,5.689,5.689,0,0,0,3.755-1.6,7.86,7.86,0,0,1,5.154-2.041,6.809,6.809,0,0,1,3.818,1.171,8.013,8.013,0,0,1,2.782,3.4,2.7,2.7,0,0,0,.134.249c.025.042.05.086.075.131a7.524,7.524,0,0,0,1.475-6.692,4.974,4.974,0,0,0-1.557-2.432,4.658,4.658,0,0,0-2.628-1.033c-1.567-.136-2.109-.622-2.073-1.859.036-1.214.492-1.565,2.119-1.63a.472.472,0,0,0,.159-.055c.059-.026.139-.061.258-.108-.169-.256-.332-.514-.489-.765a14.988,14.988,0,0,0-1.108-1.608,1.743,1.743,0,0,1-.083-2.556,1.627,1.627,0,0,1,1.147-.479,2.03,2.03,0,0,1,1.363.584,8.267,8.267,0,0,1,2.48,5.31,1.759,1.759,0,0,0,.573,1.124A7.874,7.874,0,0,1,45.385,16.8a11.028,11.028,0,0,1-.646,5.568l-.011.031a.533.533,0,0,1-.028.069c-2.36,4.435-3.45,8.127-3.534,11.973a11.08,11.08,0,0,1-1.7,5.625,16.779,16.779,0,0,1-4.132,4.43,1.732,1.732,0,0,0-.8,1.587c.035,1.23.028,2.441.021,3.723,0,.516-.006,1.05-.006,1.587L38.813,52l3.873.557a14.65,14.65,0,0,1,8.518,4.22c.977.986,1.053,1.869.231,2.7A1.557,1.557,0,0,1,50.32,60ZM20.733,46.651c0,.444,0,.882,0,1.306v.009c-.006,1.21-.012,2.354.032,3.5a1.459,1.459,0,0,0,.586.908,7.87,7.87,0,0,0,9.141-.006,1.449,1.449,0,0,0,.58-.911c.044-1.143.038-2.286.032-3.5v-.008c0-.432,0-.879,0-1.334a16.566,16.566,0,0,1-5.151.826,18.125,18.125,0,0,1-5.212-.794Zm-4.1-24.479c-.216.368-.454.742-.685,1.1a16.736,16.736,0,0,0-1.441,2.586c-1.129,2.761-.848,5.681-.463,8.435a11.284,11.284,0,0,0,4.013,7.094,12.281,12.281,0,0,0,15.693-.006A11.668,11.668,0,0,0,37.82,34.3a21.225,21.225,0,0,0-1.049-10.085,3.083,3.083,0,0,0-2.128-1.967,3.757,3.757,0,0,0-1.2-.207,4.229,4.229,0,0,0-2.842,1.27,8.533,8.533,0,0,1-5.731,2.367,9.213,9.213,0,0,1-4.139-1.058c-.88-.443-1.7-.958-2.654-1.554-.457-.286-.929-.582-1.445-.893Zm-5.1-7c-2.28,2.029-2.331,4.956-.145,8.464l1.231-1.7.028-.038,1.548-2.142-1.224-2.106-1.437-2.474h0Z" transform="translate(0 0)" fill="#88d3f4"/>
    </g>
  </g>
  <path id="Fill_7" data-name="Fill 7" d="M4,12.173a1.724,1.724,0,0,1-1.37,1.812,1.546,1.546,0,0,1-1.69-1.518c-.274-2.6-.489-5.2-.722-7.809C.135,3.754.042,2.849,0,1.943A1.688,1.688,0,0,1,1.438.008a1.56,1.56,0,0,1,1.6,1.529c.171,1.219.233,2.457.342,3.686L4,12.173" transform="translate(7 68)" fill="#88d3f4"/>
  <path id="Fill_9" data-name="Fill 9" d="M0,2.2A1.884,1.884,0,0,1,1.663.014,1.768,1.768,0,0,1,3.627,1.584c.176,1.147.3,2.306.369,3.464A1.775,1.775,0,0,1,2.4,6.984a1.791,1.791,0,0,1-2-1.536C.2,4.307.113,3.145,0,2.2" transform="translate(8 85)" fill="#88d3f4"/>
</svg>
