<svg id="Group_7" data-name="Group 7" xmlns="http://www.w3.org/2000/svg" xmlns:xlink="http://www.w3.org/1999/xlink" width="153" height="177" viewBox="0 0 153 177">
  <defs>
    <clipPath id="clip-path">
      <path id="Clip_2" data-name="Clip 2" d="M0,0H129V141H0Z" fill="none"/>
    </clipPath>
    <clipPath id="clip-path-2">
      <path id="Clip_5" data-name="Clip 5" d="M0,177H153V0H0Z" fill="none"/>
    </clipPath>
  </defs>
  <g id="Group_3" data-name="Group 3" transform="translate(22)">
    <path id="Clip_2-2" data-name="Clip 2" d="M0,0H129V141H0Z" fill="none"/>
    <g id="Group_3-2" data-name="Group 3" clip-path="url(#clip-path)">
      <path id="Fill_1" data-name="Fill 1" d="M8.865,141a8.568,8.568,0,0,1-7.416-3.566,9.9,9.9,0,0,1-.594-9.243,6.761,6.761,0,0,1,2.922-3.427,10.285,10.285,0,0,1,4.78-1.2l-2.093-2.074c-1.69-1.675-3.286-3.257-4.89-4.832C.487,115.6-.3,114.665.286,113.2c.626-1.571,1.983-1.7,3.206-1.7l.233,0c1.012.015,2.11.021,3.456.021.8,0,1.6,0,2.439,0h.006c.842,0,1.712,0,2.6,0V109.38c0-7.024,0-14.166-.007-21.072-.009-15.786-.017-32.11.023-48.174a40.614,40.614,0,0,1,2.024-12.614A39.745,39.745,0,0,1,28.7,7.739,40.407,40.407,0,0,1,40.078,1.988,55.216,55.216,0,0,1,45.9.577C46.8.395,47.722.206,48.624,0h7.627c.542.107,1.094.212,1.628.314l.012,0c1.177.225,2.4.458,3.585.721A38.922,38.922,0,0,1,73.8,6.112a40.594,40.594,0,0,1,16.374,20.07A38.268,38.268,0,0,1,92.61,39.269c.1,11.519.077,23.231.058,34.557v.022c-.009,5.008-.018,10.186-.016,15.278a4.208,4.208,0,0,0,.3,1.873c.348-.629.707-1.266,1.053-1.882.811-1.438,1.648-2.925,2.405-4.42.706-1.392,1.487-2.32,3-2.32a4.87,4.87,0,0,1,1.116.144c.02-.67.038-1.322.056-1.953v-.019c.039-1.388.076-2.7.125-4.014.026-.689.015-1.4.005-2.089a16.832,16.832,0,0,1,.373-4.741c1.221-4.341,4.326-6.924,8.978-7.471.1-.011.194-.021.291-.03.189-.018.381-.037.569-.069a.749.749,0,0,0,.23-.105c.061-.035.138-.079.238-.131V59.947c0-14.355,0-29.2,0-43.8,0-.14,0-.282-.005-.419a6.221,6.221,0,0,1,.089-1.476,2.417,2.417,0,0,1,2.463-2.1l.119,0a2.434,2.434,0,0,1,2.5,2.374,9.4,9.4,0,0,1,.033,1.258c0,.154-.006.314-.006.471q0,4.878,0,9.755v.127c.006,11.683.012,23.763-.048,35.647a2.831,2.831,0,0,0,1.868,3.022c.964.442,1.9.979,2.81,1.5.571.327,1.161.665,1.752.976,3.983,2.095,6.007,5.253,6.017,9.385a10.285,10.285,0,0,1-1.634,5.73,13.634,13.634,0,0,1-4.418,4.1c-1.57.96-3.077,1.952-4.672,3l-.006,0c-.7.46-1.422.936-2.146,1.406,1.22,1.815.921,3.159.042,4.738-3.988,7.165-8.014,14.482-11.908,21.558q-1.917,3.484-3.835,6.967c.051.059.1.122.143.182a1.071,1.071,0,0,0,.3.315,7.82,7.82,0,0,1,3.78,5.356,10.974,10.974,0,0,1-.515,6.118,7.376,7.376,0,0,1-2.6,3.374,8.442,8.442,0,0,1-4.064,1.407,7.207,7.207,0,0,1-.74.031c-.135,0-.271,0-.406,0s-.276,0-.412,0c-7.942,0-16.015-.005-23.822-.011-7.215-.005-15.388-.011-23.357-.011-15.633,0-28.284.024-39.814.075Zm70.365-5.249c4.619,0,10.71,0,16.875.013h.033c1.328,0,2.781-.131,3.207-1.7.341-1.252.564-2.984-.306-4.123a3.6,3.6,0,0,0-3.029-1.167h-.076c-5.052.05-10.581.073-17.4.073-3.6,0-7.251-.006-10.785-.012s-7.188-.012-10.785-.012H55.1v6.926H79.229ZM8.138,128.827A2.6,2.6,0,0,0,5.454,130.6a3.993,3.993,0,0,0,.166,3.712,4,4,0,0,0,3.427,1.445H49.74v-6.926H47.2l-2.465,0c-1.235,0-2.251,0-3.2-.006a3.656,3.656,0,0,1-2.675-.91,2.332,2.332,0,0,1-.63-1.759c.048-1.591,1.244-2.509,3.281-2.519.892,0,1.846-.006,3-.006l2.355,0h.007l2.393,0a8.623,8.623,0,0,0-3.186-4.965,9.6,9.6,0,0,0-5.8-1.949c-3.774-.013-7.807-.019-12.692-.019-3.437,0-6.915,0-10.278.006l-7.186.005a3.682,3.682,0,0,0-.552.06c-.13.02-.275.042-.453.065l1.495,1.5,0,0c1.691,1.7,3.288,3.3,4.9,4.895a1.9,1.9,0,0,0,.912.386c1.907.416,2.787,1.321,2.691,2.768-.1,1.533-1.266,2.419-3.193,2.432-1.111.007-2.313.01-3.673.01s-2.748,0-4.086-.007h-.05ZM78.856,116.7c-5.813,0-10.538.017-14.87.052a8.753,8.753,0,0,0-5.453,2.055,8.015,8.015,0,0,0-2.875,4.682c.032.013.064.03.095.045a.5.5,0,0,0,.209.072h.892c6.4.005,13.025.011,19.537.011,6.483,0,12.195-.006,17.463-.017a1.657,1.657,0,0,0,1.242-.626c.862-1.452,1.675-2.944,2.536-4.524l0-.008c.3-.558.618-1.135.943-1.725-3.354,0-6.722-.005-9.98-.01C85.405,116.708,82.1,116.7,78.856,116.7ZM38.017,111.5c.968,0,1.764.008,2.507.026a14.751,14.751,0,0,1,6.639,1.68,16.4,16.4,0,0,1,5.187,4.474c5.844-5.589,7.27-6.165,15.261-6.165h5c.015-.216.032-.407.047-.576.028-.323.051-.576.052-.834,0-.895,0-1.8,0-2.682,0-1.731-.009-3.52.036-5.28A2.57,2.57,0,0,1,75.275,99.4h.052a2.587,2.587,0,0,1,2.565,2.652c.043.544.037,1.1.031,1.642,0,.2,0,.405,0,.607,0,1.674,0,3.368,0,5.008v2a18.409,18.409,0,0,0,2.4.276c1.316,0,1.649-.606,2.754-2.615.358-.651.722-1.308,1.075-1.943l.008-.015c.91-1.642,1.85-3.338,2.737-5.025a4.541,4.541,0,0,0,.535-1.944,20.974,20.974,0,0,0-3.066-11.537,21.842,21.842,0,0,0-6.7-7.016A23.421,23.421,0,0,0,68.385,78.1v2.044q0,1.92,0,3.839v.067c0,3.2.005,6.514-.008,9.769-.009,2.1-.937,3.129-2.836,3.136-4.252.014-8.654.022-13.082.022-4.239,0-8.641-.007-13.083-.02-1.872-.005-2.815-.96-2.882-2.918-.014-.4-.011-.811-.007-1.205,0-.175,0-.35,0-.525V78.232c-.206.013-.391.02-.569.027a7.139,7.139,0,0,0-.941.076,21.362,21.362,0,0,0-11.348,6.025A19.463,19.463,0,0,0,17.894,95.7a75.148,75.148,0,0,0-.2,10.8c.046,1.636.094,3.326.094,5h9.171V110.2c0-1.215,0-2.325,0-3.434,0-.441,0-.889-.006-1.322v-.008c-.007-1.04-.015-2.115.024-3.17.067-1.763,1.054-2.858,2.577-2.858h.013c1.517.005,2.482,1.08,2.583,2.874.023.414.019.837.015,1.245,0,.162,0,.324,0,.486,0,2.456,0,4.911,0,7.5h1.952c.665,0,1.336,0,1.986-.007h.013C36.735,111.5,37.38,111.5,38.017,111.5Zm49.694.011h4.821c2.621,0,5.437,0,8.275-.019a1.124,1.124,0,0,0,.849-.407c.91-1.583,1.774-3.159,2.688-4.827q.375-.684.756-1.377l-7.2-3.95-3.432-1.884-2.877,5.239-.139.253-.088.161-3.741,6.81Zm12.622-23.062-.038.068c-1.115,2.011-2.157,3.89-3.321,5.986l8.163,4.467,2.476,1.355,3.328-6.042-5.463-3-.125-.069-5.02-2.761Zm-58.5-4.671V91.7H47.4l-4.55-6.479-.014-.019Zm21.26-.069-.453.646L57.5,91.681h5.592ZM44.183,78.055l8.257,11.782,4.234-6.045.068-.1,3.95-5.639ZM110.91,67.378h0a4.8,4.8,0,0,0-2.608.782,5.412,5.412,0,0,0-2.128,2.384,6.132,6.132,0,0,0-.457,3.115,27.933,27.933,0,0,1-.514,10.632,1.259,1.259,0,0,0,.441,1.11c1.5.869,3.016,1.688,4.486,2.48q.7.378,1.382.747l1.726-1.585,3.5-3.211a12.985,12.985,0,0,1-4.518-7.208A13.527,13.527,0,0,1,113.7,68.1a6.311,6.311,0,0,0-2.79-.726ZM52.595,5.16h0c-.876,0-1.765.034-2.643.1A34.982,34.982,0,0,0,17.438,40.1c-.044,10.13-.031,20.429-.018,30.389V70.5c0,3.757.01,7.642.011,11.492a6.672,6.672,0,0,0,.079.862c.022.162.044.329.064.515,5.985-6.567,7.36-7.363,18.4-10.649-.105-.1-.2-.2-.3-.29A7.348,7.348,0,0,0,35.1,71.9,27.773,27.773,0,0,1,25.16,56.487c-1.018-4.081-.91-8.3-.806-12.377.035-1.368.071-2.782.064-4.169a2.085,2.085,0,0,1,.721-1.671,3.218,3.218,0,0,1,1.812-.681c.427-.039.861-.066,1.281-.092a21.1,21.1,0,0,0,2.509-.255A23.079,23.079,0,0,0,44.061,29.9a23.707,23.707,0,0,0,5.727-14.227c.194-2.815.9-3.544,3.429-3.544.14,0,.291,0,.449.007a27.733,27.733,0,0,1,16.818,6.5,26.569,26.569,0,0,1,9.227,15.442,73.151,73.151,0,0,1,.771,13.547c0,.7-.007,1.418-.007,2.126A27.465,27.465,0,0,1,69.95,71.764c-.237.2-.457.408-.711.654-.132.127-.268.259-.421.4,8.166,1.587,9.734,2.472,18.634,10.517v-1.3q0-5.059,0-10.119c0-10.579,0-21.517-.025-32.288a31.652,31.652,0,0,0-.414-4.994A35.111,35.111,0,0,0,52.6,5.161Zm65.823,65.621a6.44,6.44,0,0,0-.89,5.657,6.918,6.918,0,0,0,4.48,4.2c1.491-1.554,2.109-3.1,1.834-4.6a5.251,5.251,0,0,0-1.625-2.769A14.137,14.137,0,0,0,118.418,70.781ZM55,17.286h0a29.628,29.628,0,0,1-8.309,17.319A28.459,28.459,0,0,1,29.853,42.68c0,1.162-.038,2.326-.075,3.451a44.832,44.832,0,0,0,.145,7.22,22.054,22.054,0,0,0,7.16,13.472A22.627,22.627,0,0,0,51.191,72.7c.353.016.712.024,1.067.024a23.636,23.636,0,0,0,14.305-4.8,21.606,21.606,0,0,0,5.059-5.463,20.4,20.4,0,0,0,2.857-7.027c.993-4.908.932-10,.76-15.664a22.94,22.94,0,0,0-3.753-12.405,23.938,23.938,0,0,0-10.12-8.182,24.808,24.808,0,0,0-4.3-1.353c-.678-.169-1.38-.344-2.067-.543Z" transform="translate(0 0)"/>
    </g>
  </g>
  <path id="Clip_5-2" data-name="Clip 5" d="M0,177H153V0H0Z" fill="none"/>
  <g id="Mask_Group_15" data-name="Mask Group 15" clip-path="url(#clip-path-2)">
    <path id="Fill_4" data-name="Fill 4" d="M75.865,42c-20.256,0-40.8,0-61.068,0a3.412,3.412,0,0,1-2.562-.766A3.655,3.655,0,0,1,11.49,38.6c-.006-4.888-.005-9.683,0-14.761V23.81q0-3.121,0-6.3H8.822l-2.452,0c-1.143,0-2.089,0-2.978-.005C.878,17.5.025,16.664.014,14.2-.005,10.182,0,6.578.015,3.186A3.288,3.288,0,0,1,.761.764,3.3,3.3,0,0,1,3.183.023C4.935.014,6.681.01,8.374.01c1.748,0,3.494,0,5.19.015,1.9.011,3.056.962,3.1,2.544a2.428,2.428,0,0,1-.651,1.8,3.384,3.384,0,0,1-2.479.889c-.943.007-1.957.01-3.19.01l-2.47,0H7.864l-2.546,0v6.907H147.654V5.267h-8.325c-.132,0-.265,0-.4,0h-.111c-.169,0-.344.006-.515.006a7.844,7.844,0,0,1-.82-.036,2.562,2.562,0,0,1-2.42-2.678,2.4,2.4,0,0,1,2.4-2.5C139.636.021,141.855,0,144.064,0c2.1,0,4.243.019,6.378.058a2.486,2.486,0,0,1,2.516,2.775c.059,4.541.057,8.32-.005,11.891-.032,1.828-1.06,2.764-3.056,2.78-1.141.009-2.375.014-3.883.014q-1.4,0-2.821,0h-.033c-.962,0-1.936,0-2.926,0v2.013q0,2.6,0,5.2c0,4.532,0,9.219,0,13.862a3.683,3.683,0,0,1-.744,2.641,3.385,3.385,0,0,1-2.553.77C116.667,42,96.121,42,75.865,42Zm-59.1-24.363V36.658h118.2V17.636Z" transform="translate(0 135)"/>
    <path id="Fill_6" data-name="Fill 6" d="M5,2.491A2.533,2.533,0,0,1,2.425,5,2.538,2.538,0,0,1,0,2.508,2.531,2.531,0,0,1,2.574,0,2.536,2.536,0,0,1,5,2.491" transform="translate(49 124)"/>
  </g>
</svg>
