<svg id="Group_7" data-name="Group 7" xmlns="http://www.w3.org/2000/svg" xmlns:xlink="http://www.w3.org/1999/xlink" width="86" height="99" viewBox="0 0 86 99">
  <defs>
    <clipPath id="clip-path">
      <path id="Clip_2" data-name="Clip 2" d="M0,0H72V79H0Z" fill="none"/>
    </clipPath>
    <clipPath id="clip-path-2">
      <path id="Clip_5" data-name="Clip 5" d="M0,99H86V0H0Z" fill="none"/>
    </clipPath>
  </defs>
  <g id="Group_3" data-name="Group 3" transform="translate(13)">
    <path id="Clip_2-2" data-name="Clip 2" d="M0,0H72V79H0Z" fill="none"/>
    <g id="Group_3-2" data-name="Group 3" clip-path="url(#clip-path)">
      <path id="Fill_1" data-name="Fill 1" d="M4.947,79a4.778,4.778,0,0,1-4.133-1.99,5.559,5.559,0,0,1-.337-5.187c.668-1.661,2.074-2.509,4.3-2.59L3.595,68.059l0,0c-.938-.934-1.823-1.814-2.712-2.69-.606-.6-1.043-1.12-.718-1.94a1.64,1.64,0,0,1,1.789-.954h.131c.558.008,1.163.012,1.9.012l1.376,0h.008l1.457,0V61.284c0-3.964,0-7.994,0-11.892v-.047c0-8.8-.01-17.9.013-26.859A22.354,22.354,0,0,1,22.369,1.114a30.661,30.661,0,0,1,3.249-.79c.5-.1,1.017-.208,1.522-.324H31.4c.305.061.611.119.917.178.656.126,1.335.256,2,.4A22.423,22.423,0,0,1,51.69,22c.054,6.479.043,13.067.032,19.438,0,2.784-.01,5.662-.009,8.5a2.355,2.355,0,0,0,.17,1.049c.2-.355.4-.714.592-1.061.451-.8.917-1.634,1.338-2.469.394-.78.829-1.3,1.676-1.3a2.705,2.705,0,0,1,.624.081c.012-.391.022-.77.033-1.139.022-.766.042-1.489.069-2.215.014-.387.009-.786,0-1.173a9.443,9.443,0,0,1,.209-2.654,5.5,5.5,0,0,1,5.01-4.186l.169-.018c.1-.01.208-.02.311-.037a.433.433,0,0,0,.129-.059c.035-.02.077-.044.133-.073V33.587q0-12.27,0-24.539c0-.078,0-.157,0-.236a3.469,3.469,0,0,1,.05-.826A1.349,1.349,0,0,1,63.6,6.809h.067a1.36,1.36,0,0,1,1.4,1.33,5.2,5.2,0,0,1,.019.7c0,.088,0,.176,0,.264q0,2.665,0,5.329v.073c0,6.59.007,13.4-.027,20.108A1.587,1.587,0,0,0,66.1,36.311c.536.246,1.058.546,1.563.837.32.184.651.374.983.549A5.688,5.688,0,0,1,72,42.956a6.187,6.187,0,0,1-3.379,5.506c-.88.54-1.724,1.1-2.619,1.69l-.005,0c-.386.255-.784.519-1.184.779a2.226,2.226,0,0,1,.023,2.655C62.58,57.66,60.3,61.817,58.1,65.837L56.05,69.572c.029.033.054.068.079.1a.6.6,0,0,0,.169.176,4.382,4.382,0,0,1,2.11,3,6.171,6.171,0,0,1-.287,3.428A4.15,4.15,0,0,1,54.4,78.958a4.026,4.026,0,0,1-.409.017l-.231,0-.231,0c-4.406,0-8.834,0-13.117-.006h-.071c-4.276,0-8.7-.006-13.045-.006-8.781,0-15.873.013-22.321.042Zm39.7-2.941c3.628,0,6.4,0,8.991.007h.022c.739,0,1.548-.073,1.786-.95a2.757,2.757,0,0,0-.173-2.312,2,2,0,0,0-1.687-.651h-.044c-2.82.028-5.905.041-9.708.041-2,0-4.04,0-6.01-.007h-.012c-1.969,0-4.006-.007-6.021-.007H30.75v3.881h13.9Zm-40.1-3.881h0a1.453,1.453,0,0,0-1.5.992,2.243,2.243,0,0,0,.1,2.083,2.23,2.23,0,0,0,1.911.806H27.762V72.18H25.053c-.724,0-1.317,0-1.866,0A2.038,2.038,0,0,1,21.7,71.67a1.31,1.31,0,0,1-.354-.988c.027-.891.695-1.406,1.831-1.411.509,0,1.056,0,1.725,0H27.5a4.831,4.831,0,0,0-1.778-2.782A5.346,5.346,0,0,0,22.489,65.4c-2.114-.007-4.368-.011-7.094-.011q-2.882,0-5.763,0h-.1l-3.871,0a2.062,2.062,0,0,0-.311.034c-.071.011-.152.023-.25.036l.8.8c.959.967,1.863,1.879,2.778,2.784a1.06,1.06,0,0,0,.509.216c1.064.233,1.556.74,1.5,1.551-.057.859-.707,1.355-1.782,1.363-.613,0-1.275.006-2.027.006q-1.164,0-2.327,0ZM44,65.387c-3.237,0-5.869.009-8.283.029a4.876,4.876,0,0,0-3.043,1.152,4.494,4.494,0,0,0-1.6,2.623c.018.007.036.017.055.026a.266.266,0,0,0,.115.04h.106c3.71,0,7.546.007,11.318.007,3.6,0,6.779,0,9.725-.01a.927.927,0,0,0,.694-.351c.489-.827.951-1.679,1.439-2.58l0-.007q.243-.449.5-.919c-1.862,0-3.733,0-5.544-.005h-.03c-1.784,0-3.629-.005-5.443-.005ZM21.181,62.47c.561,0,1.018,0,1.437.015a8.329,8.329,0,0,1,6.6,3.447c3.262-3.131,4.058-3.454,8.518-3.454h2.792c.009-.121.018-.227.026-.323.016-.182.028-.323.029-.467,0-.5,0-1.017,0-1.512,0-.968-.005-1.967.02-2.948a1.439,1.439,0,0,1,1.411-1.533h.028a1.448,1.448,0,0,1,1.433,1.486c.025.309.021.626.018.932,0,.109,0,.219,0,.328,0,.987,0,1.975,0,2.954v.971a10.405,10.405,0,0,0,1.339.155c.734,0,.921-.34,1.537-1.466q.293-.534.587-1.066l.005-.009C47.47,59.053,48,58.1,48.5,57.143a2.539,2.539,0,0,0,.3-1.089,11.787,11.787,0,0,0-1.711-6.465,12,12,0,0,0-8.917-5.833V44.9q0,1.095,0,2.189c0,1.794,0,3.649,0,5.473,0,1.179-.522,1.753-1.582,1.757-2.315.008-4.737.012-7.2.012-2.362,0-4.854,0-7.406-.011-1.045,0-1.571-.537-1.608-1.634-.007-.222-.005-.448,0-.667,0-.1,0-.2,0-.3V43.832c-.114.007-.217.011-.317.015a3.929,3.929,0,0,0-.527.043,11.907,11.907,0,0,0-6.334,3.376,10.921,10.921,0,0,0-3.2,6.356,42.289,42.289,0,0,0-.114,6.055c.026.916.053,1.862.053,2.8h5.119v-.972c0-.59,0-1.139,0-1.688,0-.249,0-.5,0-.747,0-.584-.008-1.185.014-1.775.036-.988.587-1.6,1.438-1.6H16.5c.846,0,1.385.606,1.441,1.61.014.234.011.472.009.7,0,.09,0,.179,0,.268,0,1.376,0,2.751,0,4.2H19.04c.334,0,.7,0,1.121,0h.1Zm31.547-6.976c-.8,1.46-1.578,2.883-2.367,4.326l-.011.02-1.442,2.637h2.9c1.4,0,2.916,0,4.461-.011a.623.623,0,0,0,.473-.229c.5-.869.97-1.733,1.47-2.649l.452-.826-2.9-1.6-.031-.017ZM56,49.555h0l-1.062,1.923-.812,1.469,2.521,1.386.027.015,3.388,1.862.829-1.511,1.028-1.874-3.874-2.139-.017-.009L56,49.555ZM23.348,46.938v4.44h3.106l-1.476-2.11-1.63-2.329ZM35.214,46.9l-1.558,2.23-1.564,2.238h3.121V46.9ZM24.66,43.733h0L26.6,46.516l.014.02,2.652,3.8c1-1.429,1.96-2.81,2.922-4.188l1.685-2.414H24.66ZM61.9,37.751a2.67,2.67,0,0,0-1.455.438A3.076,3.076,0,0,0,59,41.27a15.7,15.7,0,0,1-.287,5.957.706.706,0,0,0,.247.622c.834.487,1.681.944,2.5,1.387l.776.421,2.915-2.687a7.279,7.279,0,0,1-2.522-4.038,7.6,7.6,0,0,1,.827-4.773A3.509,3.509,0,0,0,61.9,37.751ZM29.356,2.89h0c-.49,0-.986.019-1.476.057A19.57,19.57,0,0,0,9.733,22.469c-.025,5.658-.017,11.411-.01,16.974q0,3.251.007,6.495a3.7,3.7,0,0,0,.043.482c.012.091.024.185.036.29,3.341-3.68,4.109-4.126,10.267-5.966l-.151-.147-.014-.013a4.11,4.11,0,0,0-.323-.3,15.614,15.614,0,0,1-5.546-8.637,25.88,25.88,0,0,1-.45-6.931c.019-.768.039-1.561.035-2.34,0-.742.526-1.234,1.415-1.318.239-.022.482-.037.718-.052a11.763,11.763,0,0,0,1.4-.143,12.867,12.867,0,0,0,7.433-4.113,13.311,13.311,0,0,0,3.2-7.971C27.9,7.2,28.291,6.8,29.7,6.8c.078,0,.162,0,.249,0a15.448,15.448,0,0,1,9.387,3.644A14.9,14.9,0,0,1,44.49,19.1a41.136,41.136,0,0,1,.431,7.589q0,.6,0,1.193a15.411,15.411,0,0,1-5.874,12.33c-.133.11-.257.23-.4.369-.072.07-.148.144-.232.223,4.558.89,5.433,1.385,10.4,5.893v-.725q0-2.569,0-5.137v-.143c0-6.055,0-12.317-.014-18.48a17.865,17.865,0,0,0-.231-2.8A19.764,19.764,0,0,0,41.909,7.569,19.347,19.347,0,0,0,29.357,2.891ZM66.094,39.658h0a3.618,3.618,0,0,0-.5,3.174,3.868,3.868,0,0,0,2.5,2.348A2.973,2.973,0,0,0,69.121,42.6c-.2-1.092-1.219-2.082-3.027-2.943ZM30.7,9.685a16.626,16.626,0,0,1-4.637,9.7,15.861,15.861,0,0,1-9.4,4.524c0,.651-.021,1.3-.042,1.935a25.164,25.164,0,0,0,.081,4.044,12.371,12.371,0,0,0,4,7.548,12.6,12.6,0,0,0,7.874,3.293c.2.009.4.013.6.013a12.466,12.466,0,0,0,12.4-9.688,38.516,38.516,0,0,0,.424-8.776,12.884,12.884,0,0,0-2.094-6.95,13.37,13.37,0,0,0-5.649-4.584,13.567,13.567,0,0,0-2.4-.757C31.474,9.9,31.08,9.8,30.7,9.685Z" transform="translate(0 0)" fill="#2baae1"/>
    </g>
  </g>
  <path id="Clip_5-2" data-name="Clip 5" d="M0,99H86V0H0Z" fill="none"/>
  <g id="Mask_Group_18" data-name="Mask Group 18" clip-path="url(#clip-path-2)">
    <path id="Fill_4" data-name="Fill 4" d="M42.643,23,8.317,23c-1.37,0-1.857-.487-1.859-1.861,0-2.62,0-5.189,0-7.909q0-1.8,0-3.638H3.746c-.715,0-1.3,0-1.839,0C.494,9.582.014,9.126.008,7.778,0,5.558,0,3.584.009,1.744.016.505.515.02,1.789.013,2.742.008,3.7.005,4.643.005c1,0,2,0,2.981.008C8.69.019,9.342.54,9.367,1.407a1.312,1.312,0,0,1-.354.975,1.919,1.919,0,0,1-1.405.5c-.538,0-1.118.006-1.825.006H2.989V6.666H83V2.885H78.349c-.1,0-.2,0-.3,0s-.2,0-.3,0a4.648,4.648,0,0,1-.474-.02A1.416,1.416,0,0,1,75.92,1.4,1.327,1.327,0,0,1,77.27.035C78.484.012,79.729,0,80.972,0c1.177,0,2.385.011,3.591.032a1.376,1.376,0,0,1,1.414,1.519c.033,2.488.032,4.558,0,6.512-.018,1-.6,1.513-1.718,1.522-.629.005-1.308.007-2.137.007l-1.608,0h-.017l-1.67,0v1.1q0,1.492,0,2.983c0,2.443,0,4.969,0,7.456,0,1.361-.5,1.868-1.853,1.868ZM9.422,9.658V20.075H75.864V9.658Z" transform="translate(0 76)" fill="#2baae1"/>
    <path id="Fill_6" data-name="Fill 6" d="M3,1.495A1.52,1.52,0,0,1,1.455,3,1.523,1.523,0,0,1,0,1.5,1.519,1.519,0,0,1,1.544,0,1.522,1.522,0,0,1,3,1.495" transform="translate(28 69)" fill="#2baae1"/>
  </g>
</svg>
