<svg id="Group_4" data-name="Group 4" xmlns="http://www.w3.org/2000/svg" xmlns:xlink="http://www.w3.org/1999/xlink" width="104" height="95" viewBox="0 0 104 95">
  <defs>
    <clipPath id="clip-path">
      <path id="Clip_2" data-name="Clip 2" d="M0,0H104V95H0Z" fill="none"/>
    </clipPath>
  </defs>
  <path id="Clip_2-2" data-name="Clip 2" d="M0,0H104V95H0Z" fill="none"/>
  <g id="Group_4-2" data-name="Group 4" clip-path="url(#clip-path)">
    <path id="Fill_1" data-name="Fill 1" d="M61.933,95H43c-10.8,0-23.044,0-35.026,0-1.809,0-2.483-.687-2.488-2.532-.006-2.813,0-5.673,0-8.439q0-1.687,0-3.375V79.337H5.33c-.3,0-.59,0-.868,0H4.456c-.309,0-.6,0-.89,0-.428,0-.779-.005-1.105-.016C.876,79.279.009,78.5.019,77.133S.93,74.988,2.49,74.966c.5-.007,1.014-.009,1.507-.012.384,0,.768,0,1.152-.007a.443.443,0,0,0,.146-.039c.035-.013.074-.027.121-.042V64.516H5.194l-.729,0H4.455l-.921,0c-.422,0-.771,0-1.1-.008A2.165,2.165,0,0,1,.02,62.391a2.092,2.092,0,0,1,.523-1.54,2.6,2.6,0,0,1,1.869-.71c.335-.01.694-.014,1.128-.014.3,0,.608,0,.917,0s.64,0,.968,0V49.667h-.2l-.748,0c-.316,0-.631,0-.947,0-.44,0-.8,0-1.146-.01C.892,49.633.03,48.851.019,47.517a2.1,2.1,0,0,1,2.336-2.174c.331-.007.686-.011,1.115-.011.307,0,.617,0,.933,0s.66,0,1,0V35.086h-1.7c-.405,0-.739,0-1.051,0a2.875,2.875,0,0,1-2.1-.706,2.035,2.035,0,0,1-.531-1.516c.023-1.372.946-2.138,2.6-2.158l1.134-.01c.465,0,.945-.007,1.419-.014a.365.365,0,0,0,.139-.046c.033-.015.069-.032.115-.05V20.252H5.3c-.285,0-.576,0-.856.005H4.432c-.328,0-.667.006-1,.006-.472,0-.863-.006-1.23-.02a2.261,2.261,0,0,1-1.9-1.034,2.227,2.227,0,0,1-.07-2.126A2.015,2.015,0,0,1,2.22,15.916c.38,0,.792-.005,1.3-.005h1.97V14.628q0-1.533,0-3.066v-.139c0-2.891,0-5.88,0-8.82C5.493.688,6.155.009,8.021.008L21.1,0h.174q8.793,0,17.587,0c8.88,0,16.191,0,23.006.015A14.9,14.9,0,0,1,72.6,4.471a15.624,15.624,0,0,1,4.379,10.964c.026,6.568.02,13.238.014,19.689v.059c0,2.772-.005,5.638-.005,8.456,0,3.5,0,7.055.008,10.494V54.2c.01,8.26.02,16.8-.027,25.2-.038,6.709-3.116,11.539-9.149,14.355A13.8,13.8,0,0,1,61.933,95ZM61.115,4.274h0a13.575,13.575,0,0,0-2.156.175V90.8c.571-.047,1.143-.073,1.7-.1a20.857,20.857,0,0,0,3.523-.362,10.392,10.392,0,0,0,6.165-3.828,11.783,11.783,0,0,0,2.24-7.2c.01-22.951,0-46.01,0-63.535a12.843,12.843,0,0,0-.133-2.225,10.944,10.944,0,0,0-3.9-6.722,11.645,11.645,0,0,0-7.43-2.55ZM44.769,4.4V90.621H54.4V4.4H44.769ZM9.889,79.1V90.62H40.514V4.423H9.883V15.671h.134c.283,0,.563,0,.834,0,.315,0,.613-.006.917-.006.438,0,.8.006,1.135.018,1.556.058,2.422.88,2.378,2.255-.044,1.335-.9,2.083-2.417,2.107-.331.005-.685.008-1.114.008l-.913,0h-.009l-.933,0V30.493h.233l.76,0H10.9l.935,0c.47,0,.855,0,1.213.01a2.041,2.041,0,0,1,2.041,1.256A2.225,2.225,0,0,1,15,33.816a2.294,2.294,0,0,1-1.858,1.032c-.366.023-.757.034-1.231.034-.335,0-.677-.005-1.007-.011s-.679-.011-1.02-.011V45.339h.185c.273,0,.542,0,.808,0,.321,0,.635,0,.946,0,.458,0,.834,0,1.185.013a2.057,2.057,0,0,1,2.274,2.121,2.084,2.084,0,0,1-2.308,2.2c-.345.008-.713.012-1.16.012-.317,0-.631,0-.946,0s-.64,0-.961,0v10.47h.237l.748,0H10.9l.921,0c.443,0,.807,0,1.147.009a2.1,2.1,0,0,1,2.1,1.18,2.22,2.22,0,0,1-.053,2.12,2.266,2.266,0,0,1-1.887,1.06c-.368.018-.76.026-1.236.026-.334,0-.673,0-1-.008s-.671-.008-1.006-.008V74.626c.044.019.079.036.111.052a.352.352,0,0,0,.14.05c.47.006.946.009,1.407.013q.626,0,1.252.011c1.583.02,2.468.778,2.492,2.136s-.856,2.173-2.413,2.208c-.337.008-.7.011-1.135.011-.3,0-.6,0-.9,0h-.019C10.512,79.1,10.2,79.1,9.889,79.1Z" transform="translate(0 0)" fill="#267493"/>
    <path id="Fill_3" data-name="Fill 3" d="M8.228,78A2.374,2.374,0,0,1,6,76.386c-.837-1.7-1.693-3.427-2.52-5.1l-.006-.013C2.4,69.108,1.294,66.87.212,64.665a2.4,2.4,0,0,1-.2-1.015c0-8.319-.006-16.768-.008-24.938,0-8.686,0-17.665-.009-26.5A2.721,2.721,0,0,1,1.237,9.787,1.433,1.433,0,0,0,1.7,8.77c.027-1.274.024-2.569.022-3.823,0-.775,0-1.577,0-2.367C1.742.712,2.437.014,4.293.008,5.954,0,7.232,0,8.439,0c1.4,0,2.666,0,3.863.011,1.641.01,2.382.753,2.4,2.41.021,1.591.016,3.162.012,4.826,0,.709,0,1.425,0,2.157h.211c.351,0,.691,0,1.022,0h.014c.371,0,.733,0,1.088,0,.493,0,.9,0,1.282.012a5.757,5.757,0,0,1,4.107,1.657A5.827,5.827,0,0,1,24,15.228c0,4.3.008,9.953,0,15.58,0,1.721-.731,2.593-2.163,2.593h-.06c-1.378-.023-2.111-.881-2.119-2.481-.012-2.228-.01-4.49-.007-6.678v-.027q0-1.343,0-2.685,0-.808,0-1.616c0-1.327,0-2.694,0-4.04,0-1.685-.443-2.122-2.133-2.128H16.218v8.9c0,13.144,0,26.736-.021,40.11A5.522,5.522,0,0,1,15.718,65c-1.186,2.568-2.426,5.163-3.626,7.673-.574,1.2-1.167,2.441-1.746,3.663-.471.993-1.007,1.657-2.09,1.668ZM5.894,65.876h0L6.6,67.254l.038.074L8.437,70.8l1.6-3.4,0-.007.715-1.517H5.894ZM4.434,13.831V61.366H11.8V13.831ZM6.141,4.4V9.338H10.3V4.4Z" transform="translate(80 9)" fill="#267493"/>
  </g>
</svg>
