<svg xmlns="http://www.w3.org/2000/svg" xmlns:xlink="http://www.w3.org/1999/xlink" width="232.003" height="40" viewBox="0 0 232.003 40">
  <defs>
    <clipPath id="clip-path">
      <path id="Clip_14" data-name="Clip 14" d="M0,40H232V0H0Z" fill="none"/>
    </clipPath>
  </defs>
  <g id="Group_16" data-name="Group 16" transform="translate(0.003)">
    <path id="Fill_1" data-name="Fill 1" d="M38.423,31.222l4.5-.228L31.93,20.771V35.133l3.329-2.389,1.876,4.128H25.775V33.279c-4.839,4.08-9.984,5.773-15.9,4.053A12.356,12.356,0,0,1,2.365,31.96C-1.855,24.917-.129,16.286,5.181,12.338c5.614-4.173,16.274-3.6,19.57,1.947L19.4,19.508a6.528,6.528,0,0,0-9.164-.423,6.431,6.431,0,0,0-.272,8.906c2.434,2.631,6.551,2.495,10.129-.347L25.253,32.5l.51-.356V0h8.158V17.636l.512.217c1.391-1.6,2.919-3.1,4.137-4.818,1.369-1.932,2.884-3.059,5.442-2.8,2.25.231,4.544.048,7.5.048L40.261,23,53,37.005c-4.25,0-7.791.019-11.332-.028a1.459,1.459,0,0,1-1.106-.622c-.739-1.6-1.366-3.243-2.138-5.133" transform="translate(179 2)"/>
    <path id="Fill_3" data-name="Fill 3" d="M13.857,39h-.172c-4.947-.053-8.67-1.926-11.065-5.567A15.91,15.91,0,0,1,.228,27.218,17.389,17.389,0,0,1,.416,20.64a13.8,13.8,0,0,1,6.112-8.966,11.878,11.878,0,0,1,5.993-1.5,12.363,12.363,0,0,1,8.9,3.586V0h9.226V2.36c0,2.219,0,4.472.006,6.651.008,6.094.017,12.4-.041,18.594-.016,1.688.38,2.874,2.362,3.172,0,.364.007.72.014,1.064a20.432,20.432,0,0,1-.031,2.182c-.03.345-.055.751-.081,1.18-.088,1.442-.188,3.076-.534,3.131a19.811,19.811,0,0,1-3.186.258,17.728,17.728,0,0,1-3.822-.4c-.77-.17-1.395-.952-2.057-1.779a14.535,14.535,0,0,0-.972-1.133C20.589,37.678,17.589,39,13.857,39Zm1.67-21.066h-.079a5.364,5.364,0,0,0-4.135,1.885,7.25,7.25,0,0,0-1.6,4.8c-.007,3.817,2.285,6.39,5.7,6.4h.052c2.081,0,3.548-.475,4.483-1.451s1.39-2.506,1.39-4.677a7.817,7.817,0,0,0-1.567-5.084A5.339,5.339,0,0,0,15.527,17.934Z" transform="translate(32)" fill="#2baae1"/>
    <path id="Fill_5" data-name="Fill 5" d="M29.133,26.355,35,32.472c-7.2,8.181-21.424,8.742-29.445,1.289-7.212-6.7-7.76-20.883.478-28.956C12.146-1.187,27.224-2.415,34.219,6L28.4,11.884a11.011,11.011,0,0,0-10.219-3.46,12.778,12.778,0,0,0-6.553,3.439c-4.173,4.5-3.872,11.9.5,15.792s10.547,4.423,17-1.3" transform="translate(103 1)"/>
    <path id="Fill_7" data-name="Fill 7" d="M15.982,29a20.909,20.909,0,0,1-5.99-.886A13.734,13.734,0,0,1,1.7,21.854,14.26,14.26,0,0,1,.314,11.963c.8-4.129,2.618-7.247,5.4-9.268A15.6,15.6,0,0,1,15.09,0a26.869,26.869,0,0,1,4.282.362A14.7,14.7,0,0,1,24.7,2.284,12.664,12.664,0,0,1,28.573,5.94a15.535,15.535,0,0,1,2.178,11.431H10.291c.051,3.034,2.228,3.93,4.454,4.588a5.6,5.6,0,0,0,1.583.238,6.286,6.286,0,0,0,4.363-2.032,2.607,2.607,0,0,1,1.852-.919,3.623,3.623,0,0,1,1.084.2c1.367.431,2.785.79,4.157,1.137.582.147,1.182.3,1.771.455a10.877,10.877,0,0,1-5.074,5.858A17.148,17.148,0,0,1,15.982,29ZM15.61,6.543l-.134,0c-2.71.071-4.669,1.91-5.24,4.919H20.866C20.25,8.475,18.187,6.543,15.61,6.543Z" transform="translate(0 10)" fill="#2baae1"/>
    <path id="Fill_9" data-name="Fill 9" d="M.023,0h9.22c0,5.316,0,10.521,0,15.727,0,3.314,1.2,4.93,3.642,4.94a5.433,5.433,0,0,0,5.575-5.289c.007-5.063,0-10.125,0-15.339h9.22c0,5.473-.022,10.906.013,16.338.011,1.589-.588,3.554,1.958,3.954.157.024.287.63.316.975.052.61.017,1.228.018,1.843,0,5.393,0,5.295-5.292,5.406-2.931.061-4.222-1.547-5.031-4.315-2.591,3.48-6.306,4.1-10.054,4.689-3.319.524-7.691-2.011-8.626-5.3a22.987,22.987,0,0,1-.921-5.761C-.051,11.971.023,6.066.023,0" transform="translate(68 11)" fill="#2baae1"/>
    <path id="Fill_11" data-name="Fill 11" d="M0,37V0H8.573V28.951H27V37Z" transform="translate(139 2)"/>
    <path id="Clip_14-2" data-name="Clip 14" d="M0,40H232V0H0Z" fill="none"/>
    <g id="Group_16-2" data-name="Group 16" clip-path="url(#clip-path)">
      <path id="Fill_13" data-name="Fill 13" d="M0,27H8V0H0Z" transform="translate(169 12)"/>
      <path id="Fill_15" data-name="Fill 15" d="M4.457,0C7.311,0,9.02,1.623,9,4.323A4.506,4.506,0,0,1,4.452,9,4.444,4.444,0,0,1,.006,4.446C-.115,1.69,1.71,0,4.457,0" transform="translate(168 1)"/>
    </g>
  </g>
</svg>
